<svg xmlns="http://www.w3.org/2000/svg" xmlns:xlink="http://www.w3.org/1999/xlink" width="500" zoomAndPan="magnify" viewBox="0 0 375 374.999991" height="500" preserveAspectRatio="xMidYMid meet" version="1.0"><defs><g/><clipPath id="c670bbf426"><path d="M 136 124 L 232 124 L 232 165.929688 L 136 165.929688 Z M 136 124 " clip-rule="nonzero"/></clipPath><clipPath id="2e3ec5220e"><path d="M 240 161 L 284.546875 161 L 284.546875 165.929688 L 240 165.929688 Z M 240 161 " clip-rule="nonzero"/></clipPath><clipPath id="8399c9904d"><path d="M 144 77.429688 L 166 77.429688 L 166 117 L 144 117 Z M 144 77.429688 " clip-rule="nonzero"/></clipPath><clipPath id="da415b1df1"><path d="M 90.296875 125 L 130 125 L 130 147 L 90.296875 147 Z M 90.296875 125 " clip-rule="nonzero"/></clipPath><clipPath id="d970f3d250"><path d="M 136 209.0625 L 232 209.0625 L 232 251 L 136 251 Z M 136 209.0625 " clip-rule="nonzero"/></clipPath><clipPath id="76df4be7e2"><path d="M 240 209.0625 L 284.546875 209.0625 L 284.546875 214 L 240 214 Z M 240 209.0625 " clip-rule="nonzero"/></clipPath><clipPath id="632e2b7033"><path d="M 144 258 L 166 258 L 166 297.5625 L 144 297.5625 Z M 144 258 " clip-rule="nonzero"/></clipPath><clipPath id="d62076b3f8"><path d="M 90.449219 228 L 130 228 L 130 250 L 90.449219 250 Z M 90.449219 228 " clip-rule="nonzero"/></clipPath></defs><path fill="#e2ffbc" d="M 136.902344 161.328125 C 136.933594 160.863281 136.871094 161.390625 136.902344 161.328125 Z M 136.902344 161.328125 " fill-opacity="1" fill-rule="nonzero"/><path fill="#e2ffbc" d="M 219.625 147.894531 C 219.535156 147.773438 219.410156 147.648438 219.75 148.050781 C 219.75 148.019531 219.71875 148.019531 219.71875 147.988281 C 219.6875 147.925781 219.65625 147.925781 219.625 147.894531 Z M 219.625 147.894531 " fill-opacity="1" fill-rule="nonzero"/><g clip-path="url(#c670bbf426)"><path fill="#e2ffbc" d="M 138.167969 164.324219 C 138.386719 163.921875 138.601562 163.519531 138.847656 163.148438 C 138.910156 163.089844 138.972656 162.996094 139.003906 162.933594 C 139.035156 162.902344 139.035156 162.871094 139.0625 162.871094 C 139.0625 162.871094 139.09375 162.839844 139.09375 162.839844 C 139.25 162.65625 139.375 162.472656 139.496094 162.285156 C 140.082031 161.511719 140.453125 160.617188 140.886719 159.753906 C 141.289062 158.917969 141.8125 158.179688 142.277344 157.375 C 143.265625 155.769531 144.160156 154.101562 145.210938 152.558594 C 145.734375 151.785156 146.257812 151.046875 146.816406 150.304688 C 146.816406 150.304688 146.816406 150.273438 146.847656 150.273438 C 146.90625 150.210938 146.96875 150.121094 147.03125 150.058594 C 147.183594 149.871094 147.308594 149.6875 147.464844 149.5 C 147.773438 149.101562 148.113281 148.730469 148.453125 148.328125 C 149.6875 146.90625 150.984375 145.550781 152.34375 144.253906 C 153.699219 142.957031 155.121094 141.71875 156.601562 140.515625 C 156.789062 140.363281 156.972656 140.238281 157.160156 140.082031 C 156.664062 140.484375 157.3125 139.960938 157.40625 139.898438 C 157.808594 139.589844 158.238281 139.28125 158.640625 138.972656 C 159.414062 138.417969 160.183594 137.890625 160.957031 137.398438 C 164.199219 135.265625 167.65625 133.414062 171.207031 131.839844 C 171.332031 131.777344 171.457031 131.714844 171.609375 131.683594 C 171.609375 131.683594 171.640625 131.683594 171.640625 131.683594 C 171.886719 131.59375 172.105469 131.5 172.351562 131.40625 C 172.9375 131.160156 173.523438 130.945312 174.113281 130.726562 C 175.191406 130.355469 176.273438 130.015625 177.355469 129.707031 C 178.496094 129.398438 179.667969 129.183594 180.84375 129 C 180.84375 129 180.875 129 180.875 129 C 180.996094 128.96875 181.121094 128.96875 181.246094 128.96875 C 181.492188 128.9375 181.738281 128.90625 181.984375 128.90625 C 182.542969 128.84375 183.128906 128.8125 183.683594 128.8125 C 184.796875 128.78125 185.90625 128.8125 187.019531 128.90625 C 187.542969 128.9375 188.039062 129 188.5625 129.058594 C 188.59375 129.058594 188.65625 129.058594 188.71875 129.058594 C 188.6875 129.058594 188.65625 129.058594 188.625 129.058594 C 188.71875 129.058594 188.839844 129.089844 188.933594 129.121094 C 189.242188 129.183594 189.582031 129.214844 189.890625 129.277344 C 192.082031 129.679688 194.273438 130.265625 196.375 131.003906 C 196.867188 131.191406 197.363281 131.375 197.855469 131.5625 C 198.074219 131.652344 198.320312 131.746094 198.535156 131.839844 C 198.660156 131.902344 198.8125 131.960938 198.9375 131.992188 C 199 132.023438 199.0625 132.054688 199.09375 132.054688 C 200.109375 132.519531 201.128906 132.980469 202.148438 133.507812 C 203.941406 134.402344 205.636719 135.453125 207.304688 136.5625 C 207.707031 136.8125 208.078125 137.089844 208.449219 137.367188 C 208.632812 137.488281 208.820312 137.644531 209.035156 137.769531 C 209.25 137.921875 209.5 138.199219 209.714844 138.261719 C 209.777344 138.292969 209.808594 138.324219 209.867188 138.386719 C 210.054688 138.539062 210.238281 138.664062 210.425781 138.816406 C 210.796875 139.125 211.195312 139.433594 211.566406 139.746094 C 213.019531 140.980469 214.4375 142.308594 215.796875 143.664062 C 217.125 144.992188 218.390625 146.414062 219.566406 147.894531 C 219.59375 147.925781 219.625 147.957031 219.625 147.988281 C 219.65625 148.019531 219.65625 148.019531 219.6875 148.050781 C 219.6875 148.050781 219.6875 148.050781 219.71875 148.082031 C 219.75 148.113281 219.78125 148.144531 219.78125 148.175781 C 219.78125 148.175781 219.75 148.144531 219.75 148.144531 C 219.84375 148.296875 219.964844 148.421875 220.058594 148.574219 C 220.367188 148.976562 220.644531 149.410156 220.953125 149.8125 C 221.480469 150.582031 221.972656 151.355469 222.46875 152.125 C 223.457031 153.703125 224.320312 155.367188 225.0625 157.066406 C 225.09375 157.128906 225.152344 157.285156 225.152344 157.3125 C 225.246094 157.53125 225.339844 157.746094 225.402344 157.960938 C 225.585938 158.425781 225.742188 158.859375 225.894531 159.320312 C 226.078125 159.878906 226.328125 160.402344 226.574219 160.925781 C 226.574219 160.925781 226.574219 160.957031 226.605469 160.957031 C 226.605469 160.988281 226.636719 161.019531 226.636719 161.050781 C 226.636719 161.082031 226.667969 161.113281 226.667969 161.175781 C 226.757812 161.421875 226.851562 161.699219 226.945312 161.945312 C 227.128906 162.472656 227.222656 163.121094 227.53125 163.582031 C 227.808594 164.015625 228.210938 164.355469 228.519531 164.726562 C 228.796875 165.066406 229.320312 165.15625 229.722656 165.035156 C 230.1875 164.910156 230.433594 164.570312 230.589844 164.167969 C 230.804688 163.613281 231.082031 163.058594 231.050781 162.472656 C 231.019531 161.851562 230.898438 161.203125 230.804688 160.554688 C 230.742188 160.09375 230.648438 159.628906 230.589844 159.167969 C 230.558594 159.011719 230.433594 158.148438 230.558594 158.980469 C 230.496094 158.519531 230.402344 158.148438 230.28125 157.683594 C 229.632812 155.648438 228.796875 153.671875 227.839844 151.757812 C 226.019531 148.082031 223.546875 144.746094 220.800781 141.71875 C 217.988281 138.632812 214.777344 136.070312 211.320312 133.753906 C 207.644531 131.285156 203.632812 129.183594 199.523438 127.515625 C 195.046875 125.726562 190.261719 124.582031 185.445312 124.460938 C 180.535156 124.335938 175.6875 125.449219 171.148438 127.269531 C 163.335938 130.417969 156.078125 134.957031 149.964844 140.761719 C 147 143.574219 144.3125 146.691406 142.027344 150.089844 C 140.949219 151.664062 139.835938 153.332031 139.0625 155.058594 C 138.816406 155.617188 138.539062 156.203125 138.355469 156.789062 C 138.292969 157.003906 138.199219 157.222656 138.136719 157.4375 C 138.261719 156.972656 138.078125 157.621094 138.046875 157.683594 C 137.984375 157.839844 137.921875 158.023438 137.828125 158.179688 C 137.457031 159.074219 137.117188 159.96875 136.964844 160.925781 C 136.933594 161.203125 136.902344 161.328125 136.871094 161.359375 C 136.871094 161.421875 136.871094 161.484375 136.839844 161.574219 C 136.839844 161.667969 136.839844 161.761719 136.839844 161.824219 C 136.839844 162.039062 136.839844 162.253906 136.839844 162.472656 C 136.839844 162.964844 136.75 163.429688 136.71875 163.921875 C 136.6875 164.695312 137.828125 164.941406 138.167969 164.324219 Z M 138.167969 164.324219 " fill-opacity="1" fill-rule="nonzero"/></g><g clip-path="url(#2e3ec5220e)"><path fill="#e2ffbc" d="M 267.457031 165.683594 C 268.691406 165.652344 269.925781 165.683594 271.195312 165.683594 C 271.8125 165.683594 272.429688 165.683594 273.046875 165.683594 C 273.355469 165.683594 273.632812 165.683594 273.941406 165.683594 C 274.28125 165.652344 274.683594 165.589844 275.054688 165.527344 C 275.734375 165.496094 276.441406 165.433594 277.121094 165.375 C 277.492188 165.34375 277.863281 165.3125 278.234375 165.28125 C 278.695312 165.25 279.160156 165.21875 279.59375 165.125 C 279.777344 165.09375 279.933594 165.066406 280.117188 165.003906 C 280.117188 165.003906 280.148438 165.003906 280.148438 165.003906 C 280.148438 165.003906 280.148438 165.003906 280.179688 165.003906 C 280.300781 165.003906 280.394531 164.972656 280.519531 164.972656 C 280.890625 164.941406 281.261719 164.910156 281.628906 164.878906 C 282 164.847656 282.371094 164.816406 282.742188 164.785156 C 283.175781 164.753906 283.605469 164.664062 284.007812 164.570312 C 284.285156 164.507812 284.503906 164.199219 284.503906 163.921875 C 284.503906 163.644531 284.316406 163.335938 284.007812 163.273438 C 283.574219 163.210938 283.175781 163.121094 282.742188 163.089844 C 282.371094 163.058594 282 163.058594 281.628906 163.027344 C 281.261719 162.996094 280.890625 162.996094 280.519531 162.964844 C 280.425781 162.964844 280.332031 162.964844 280.210938 162.933594 C 280.179688 162.933594 280.117188 162.933594 280.085938 162.933594 C 279.933594 162.902344 279.746094 162.871094 279.59375 162.839844 C 278.789062 162.6875 277.925781 162.71875 277.121094 162.65625 C 276.441406 162.625 275.734375 162.5625 275.054688 162.53125 C 273.972656 162.316406 272.859375 162.347656 271.75 162.347656 C 270.699219 162.316406 269.648438 162.316406 268.628906 162.285156 C 267.582031 162.253906 266.5 162.191406 265.449219 162.132812 C 264.398438 162.070312 263.351562 162.007812 262.332031 161.945312 C 260.230469 161.824219 258.164062 161.667969 256.0625 161.542969 C 253.992188 161.421875 251.894531 161.359375 249.792969 161.265625 C 248.621094 161.203125 247.417969 161.144531 246.242188 161.082031 C 245.65625 161.050781 245.070312 161.113281 244.484375 161.144531 C 244.082031 161.175781 243.679688 161.175781 243.28125 161.234375 C 243.15625 161.265625 243.03125 161.296875 242.878906 161.296875 C 242.628906 161.359375 242.414062 161.421875 242.167969 161.511719 C 242.292969 161.453125 242.382812 161.421875 242.507812 161.359375 C 242.414062 161.390625 242.292969 161.421875 242.199219 161.453125 C 241.980469 161.511719 241.796875 161.605469 241.644531 161.761719 C 241.796875 161.636719 241.828125 161.605469 241.734375 161.699219 C 241.613281 161.792969 241.488281 161.882812 241.363281 161.976562 C 241.273438 162.007812 241.210938 162.039062 241.117188 162.039062 C 240.746094 162.160156 240.59375 162.75 240.996094 162.933594 C 241.054688 162.964844 241.117188 162.996094 241.210938 163.027344 C 241.210938 163.027344 241.242188 163.058594 241.273438 163.058594 C 241.304688 163.089844 241.304688 163.089844 241.304688 163.121094 C 241.332031 163.179688 241.394531 163.242188 241.457031 163.304688 C 241.671875 163.550781 241.921875 163.738281 242.199219 163.890625 C 242.753906 164.167969 243.371094 164.324219 243.988281 164.445312 C 244.667969 164.570312 245.347656 164.753906 246.058594 164.816406 C 246.582031 164.878906 247.140625 164.910156 247.664062 164.972656 C 249.855469 165.15625 252.046875 165.34375 254.242188 165.496094 C 256.433594 165.652344 258.625 165.683594 260.847656 165.683594 C 263.074219 165.742188 265.265625 165.714844 267.457031 165.683594 Z M 267.457031 165.683594 " fill-opacity="1" fill-rule="nonzero"/></g><path fill="#e2ffbc" d="M 241.273438 163.148438 L 241.332031 163.242188 C 241.332031 163.242188 241.332031 163.210938 241.304688 163.210938 C 241.304688 163.210938 241.273438 163.179688 241.273438 163.148438 Z M 241.273438 163.148438 " fill-opacity="1" fill-rule="nonzero"/><path fill="#e2ffbc" d="M 234.820312 140.855469 C 235.589844 140.640625 236.363281 140.300781 237.074219 139.929688 C 237.691406 139.621094 238.246094 139.21875 238.800781 138.816406 C 239.359375 138.417969 239.914062 138.015625 240.46875 137.582031 C 241.273438 136.964844 242.105469 136.378906 242.941406 135.761719 C 242.785156 135.882812 242.628906 135.976562 242.507812 136.101562 C 243.25 135.515625 244.050781 134.957031 244.792969 134.371094 C 245.378906 133.90625 245.964844 133.445312 246.550781 132.980469 C 246.921875 132.703125 247.292969 132.425781 247.664062 132.148438 C 248.25 131.746094 248.867188 131.34375 249.394531 130.851562 C 249.269531 130.945312 249.144531 131.035156 249.054688 131.128906 C 249.546875 130.757812 250.042969 130.355469 250.535156 129.988281 C 251.03125 129.617188 251.523438 129.246094 252.046875 128.875 C 252.296875 128.691406 252.574219 128.503906 252.820312 128.320312 C 253.007812 128.195312 253.222656 128.070312 253.375 127.917969 C 253.5 127.792969 253.59375 127.671875 253.714844 127.578125 C 254.023438 127.269531 254.117188 126.714844 253.871094 126.34375 C 253.625 125.941406 253.191406 125.789062 252.695312 125.878906 C 252.542969 125.910156 252.359375 125.941406 252.203125 125.972656 C 251.988281 126.035156 251.738281 126.15625 251.523438 126.25 C 251.246094 126.375 250.9375 126.496094 250.660156 126.621094 C 250.074219 126.898438 249.484375 127.175781 248.867188 127.421875 C 248.992188 127.363281 249.117188 127.332031 249.238281 127.269531 C 248.621094 127.515625 248.035156 127.792969 247.449219 128.070312 C 246.644531 128.410156 245.902344 128.875 245.164062 129.308594 C 244.453125 129.707031 243.710938 130.140625 243 130.542969 C 241.425781 131.46875 239.945312 132.550781 238.492188 133.691406 C 237.90625 134.15625 237.351562 134.617188 236.765625 135.082031 C 236.117188 135.574219 235.46875 136.039062 234.820312 136.472656 C 234.480469 136.71875 234.140625 136.933594 233.769531 137.152344 C 233.582031 137.273438 233.429688 137.367188 233.242188 137.460938 C 233.152344 137.519531 233.058594 137.550781 232.964844 137.613281 C 232.84375 137.675781 232.75 137.738281 232.65625 137.800781 C 232.6875 137.769531 232.6875 137.769531 232.71875 137.738281 C 232.566406 137.859375 232.378906 137.953125 232.195312 138.046875 C 232.132812 138.078125 232.039062 138.136719 231.945312 138.167969 C 231.824219 138.230469 231.730469 138.324219 231.636719 138.386719 C 231.546875 138.449219 231.421875 138.507812 231.328125 138.570312 C 230.988281 138.816406 230.742188 139.15625 230.742188 139.589844 C 230.742188 139.960938 230.957031 140.453125 231.328125 140.609375 C 231.484375 140.671875 231.667969 140.761719 231.824219 140.824219 C 231.914062 140.855469 231.976562 140.855469 232.070312 140.886719 C 232.132812 140.917969 232.195312 140.949219 232.253906 140.949219 C 232.410156 140.980469 232.566406 140.980469 232.71875 141.011719 C 232.8125 141.011719 232.875 141.011719 232.964844 141.042969 C 233.121094 141.042969 233.273438 141.042969 233.460938 141.042969 C 233.890625 141.101562 234.355469 140.980469 234.820312 140.855469 Z M 234.820312 140.855469 " fill-opacity="1" fill-rule="nonzero"/><path fill="#e2ffbc" d="M 212.617188 120.96875 C 212.957031 120.9375 213.265625 120.753906 213.542969 120.539062 C 213.699219 120.414062 213.882812 120.289062 214.039062 120.167969 C 214.039062 120.167969 214.066406 120.136719 214.066406 120.136719 C 214.097656 120.105469 214.128906 120.074219 214.160156 120.042969 C 214.128906 120.074219 214.097656 120.074219 214.066406 120.105469 C 214.5625 119.671875 214.964844 119.085938 215.363281 118.5625 C 215.675781 118.160156 215.953125 117.726562 216.230469 117.296875 C 216.722656 116.492188 217.21875 115.660156 217.804688 114.886719 C 218.824219 113.621094 220.121094 112.601562 221.230469 111.429688 C 222.375 110.253906 223.394531 108.925781 224.289062 107.539062 C 226.019531 104.882812 227.222656 101.917969 228.394531 99.015625 C 228.984375 97.5625 229.570312 96.082031 230.15625 94.628906 C 230.558594 93.703125 230.988281 92.777344 231.421875 91.882812 C 231.636719 91.417969 231.886719 90.925781 232.101562 90.460938 C 232.226562 90.214844 232.347656 90 232.472656 89.753906 C 232.59375 89.535156 232.6875 89.289062 232.8125 89.074219 C 232.964844 88.824219 233.089844 88.546875 233.242188 88.300781 C 233.304688 88.175781 233.367188 88.054688 233.429688 87.929688 C 233.429688 87.898438 233.523438 87.746094 233.523438 87.683594 C 233.550781 87.527344 233.550781 87.34375 233.582031 87.1875 C 233.582031 87.128906 233.613281 87.035156 233.613281 86.972656 C 233.675781 86.757812 233.675781 86.507812 233.613281 86.292969 C 233.550781 86.078125 233.429688 85.890625 233.273438 85.738281 C 232.996094 85.460938 232.441406 85.242188 232.007812 85.398438 C 231.515625 85.613281 230.929688 85.800781 230.558594 86.230469 C 230.339844 86.507812 230.125 86.757812 229.910156 87.035156 C 229.320312 87.683594 228.828125 88.453125 228.363281 89.195312 C 227.964844 89.8125 227.625 90.460938 227.285156 91.109375 C 226.605469 92.4375 225.957031 93.765625 225.339844 95.125 C 224.105469 97.84375 223.023438 100.621094 221.601562 103.214844 C 220.863281 104.574219 220.058594 105.871094 219.132812 107.105469 C 218.238281 108.25 217.1875 109.234375 216.167969 110.253906 C 214.964844 111.429688 213.882812 112.757812 213.140625 114.269531 C 212.710938 115.132812 212.339844 116 211.96875 116.863281 C 212.03125 116.707031 212.09375 116.554688 212.152344 116.398438 C 212.03125 116.679688 211.90625 116.988281 211.753906 117.265625 C 211.597656 117.605469 211.382812 117.914062 211.226562 118.285156 C 211.195312 118.34375 211.164062 118.4375 211.136719 118.5 C 211.105469 118.5625 211.074219 118.625 211.042969 118.714844 C 210.917969 118.933594 210.855469 119.179688 210.824219 119.394531 C 210.765625 119.703125 210.734375 119.980469 210.703125 120.289062 C 210.671875 120.476562 210.796875 120.722656 210.917969 120.847656 C 211.074219 121 211.257812 121.03125 211.472656 121.0625 C 212 121.0625 212.308594 121.0625 212.617188 120.96875 Z M 212.617188 120.96875 " fill-opacity="1" fill-rule="nonzero"/><path fill="#e2ffbc" d="M 193.6875 113.4375 C 193.75 113.1875 193.78125 112.941406 193.875 112.695312 C 193.996094 112.449219 194.027344 112.199219 194.058594 111.890625 C 194.027344 112.015625 194.027344 112.167969 193.996094 112.292969 C 194.089844 111.921875 194.152344 111.550781 194.183594 111.152344 C 194.183594 110.871094 194.214844 110.5625 194.214844 110.285156 C 194.246094 109.761719 194.246094 109.207031 194.214844 108.679688 C 194.183594 107.414062 194.027344 106.179688 193.84375 104.945312 C 193.535156 102.78125 192.949219 100.683594 192.238281 98.613281 C 191.867188 97.503906 191.558594 96.390625 191.371094 95.25 C 191.3125 94.628906 191.28125 93.980469 191.25 93.332031 C 191.25 92.59375 191.21875 91.820312 191.25 91.078125 C 191.28125 90.308594 191.3125 89.566406 191.402344 88.792969 C 191.496094 88.085938 191.527344 87.34375 191.621094 86.632812 C 191.679688 86.230469 191.679688 85.800781 191.679688 85.367188 C 191.679688 85.183594 191.679688 84.964844 191.679688 84.75 C 191.652344 84.441406 191.558594 84.164062 191.464844 83.886719 C 191.339844 83.546875 191.15625 83.296875 190.785156 83.144531 C 190.476562 83.019531 190.042969 82.988281 189.765625 83.207031 C 189.550781 83.359375 189.304688 83.515625 189.117188 83.699219 C 188.902344 83.914062 188.6875 84.285156 188.5625 84.5625 C 188.285156 85.058594 188.007812 85.613281 187.851562 86.140625 C 187.730469 86.570312 187.574219 87.003906 187.480469 87.4375 C 187.359375 87.898438 187.296875 88.363281 187.234375 88.792969 C 186.925781 90.769531 186.773438 92.777344 186.957031 94.785156 C 187.050781 95.898438 187.234375 96.976562 187.511719 98.058594 C 187.761719 98.921875 188.070312 99.789062 188.347656 100.621094 C 188.933594 102.351562 189.335938 104.140625 189.707031 105.933594 C 189.921875 106.921875 190.042969 107.9375 190.261719 108.957031 C 190.355469 109.453125 190.445312 109.945312 190.570312 110.410156 C 190.632812 110.65625 190.691406 110.902344 190.753906 111.152344 C 190.816406 111.398438 190.847656 111.613281 190.941406 111.859375 C 190.972656 111.921875 191.003906 112.015625 191.03125 112.078125 C 191.125 112.292969 191.21875 112.539062 191.339844 112.726562 C 191.371094 112.789062 191.433594 112.847656 191.464844 112.910156 C 191.464844 112.941406 191.496094 112.972656 191.496094 113.003906 C 191.558594 113.128906 191.589844 113.25 191.652344 113.375 C 191.679688 113.4375 191.773438 113.652344 191.652344 113.375 C 191.742188 113.589844 191.835938 113.777344 192.050781 113.929688 C 192.238281 114.085938 192.484375 114.175781 192.699219 114.175781 C 193.101562 114.207031 193.566406 113.898438 193.6875 113.4375 Z M 193.6875 113.4375 " fill-opacity="1" fill-rule="nonzero"/><path fill="#e2ffbc" d="M 163.210938 116.03125 C 163.179688 116 163.148438 115.96875 163.117188 115.9375 C 163.058594 115.90625 163.027344 115.84375 162.964844 115.8125 C 163.027344 115.90625 163.117188 115.96875 163.210938 116.03125 Z M 163.210938 116.03125 " fill-opacity="1" fill-rule="nonzero"/><g clip-path="url(#8399c9904d)"><path fill="#e2ffbc" d="M 165.15625 116.183594 C 165.21875 115.9375 165.28125 115.691406 165.21875 115.410156 C 165.1875 115.351562 165.1875 115.257812 165.15625 115.195312 C 165.15625 115.164062 165.15625 115.132812 165.15625 115.101562 C 165.21875 114.546875 164.910156 113.960938 164.695312 113.464844 C 164.753906 113.589844 164.785156 113.714844 164.847656 113.835938 C 164.695312 113.4375 164.476562 113.066406 164.382812 112.632812 C 164.230469 112.046875 163.953125 111.550781 163.675781 111.027344 C 163.273438 110.222656 162.902344 109.390625 162.53125 108.558594 C 162.59375 108.742188 162.6875 108.898438 162.75 109.082031 C 162.410156 108.277344 162.039062 107.507812 161.699219 106.703125 C 160.773438 104.449219 160.15625 102.074219 159.257812 99.816406 C 158.734375 98.492188 158.148438 97.222656 157.40625 95.988281 C 156.789062 94.96875 156.109375 94.011719 155.460938 93.054688 C 154.78125 92.035156 154.132812 90.988281 153.640625 89.84375 C 153.359375 89.132812 153.144531 88.394531 152.898438 87.652344 C 152.558594 86.632812 152.1875 85.644531 151.753906 84.65625 C 151.414062 83.886719 151.015625 83.113281 150.582031 82.402344 C 150.058594 81.539062 149.46875 80.734375 148.820312 79.933594 C 148.511719 79.5625 148.234375 79.191406 147.925781 78.820312 C 147.773438 78.636719 147.648438 78.449219 147.496094 78.296875 C 147.371094 78.171875 147.09375 77.988281 146.90625 77.863281 C 146.597656 77.648438 146.257812 77.585938 145.886719 77.585938 C 145.519531 77.429688 145.085938 77.492188 144.777344 77.738281 C 144.46875 77.988281 144.34375 78.296875 144.34375 78.667969 C 143.972656 79.59375 144.53125 80.519531 144.992188 81.382812 C 145.269531 81.878906 145.550781 82.371094 145.796875 82.898438 C 146.257812 83.792969 146.722656 84.6875 147.125 85.613281 C 147.523438 86.632812 147.832031 87.714844 148.113281 88.792969 C 148.265625 89.382812 148.390625 89.96875 148.574219 90.554688 C 148.820312 91.296875 149.101562 92.007812 149.441406 92.683594 C 150.367188 94.691406 151.695312 96.484375 152.898438 98.335938 C 153.578125 99.355469 154.132812 100.40625 154.628906 101.515625 C 154.996094 102.414062 155.304688 103.308594 155.617188 104.203125 C 156.046875 105.375 156.511719 106.550781 157.035156 107.691406 C 157.5 108.648438 157.992188 109.574219 158.519531 110.472656 C 159.042969 111.398438 159.691406 112.230469 160.308594 113.097656 C 160.492188 113.34375 160.679688 113.589844 160.863281 113.835938 C 160.957031 113.992188 161.082031 114.175781 161.203125 114.269531 C 161.265625 114.332031 161.359375 114.394531 161.421875 114.453125 C 161.542969 114.546875 161.605469 114.640625 161.730469 114.734375 C 161.945312 114.949219 162.128906 115.164062 162.347656 115.382812 C 162.59375 115.628906 162.839844 115.84375 163.117188 116.058594 C 163.273438 116.183594 163.425781 116.277344 163.644531 116.339844 C 163.738281 116.429688 163.828125 116.492188 163.921875 116.554688 C 164.015625 116.617188 164.136719 116.648438 164.261719 116.648438 C 164.414062 116.679688 164.414062 116.679688 164.261719 116.648438 C 164.324219 116.679688 164.414062 116.679688 164.476562 116.679688 C 164.753906 116.617188 165.0625 116.523438 165.15625 116.183594 Z M 165.15625 116.183594 " fill-opacity="1" fill-rule="nonzero"/></g><path fill="#e2ffbc" d="M 140.515625 128.382812 C 140.761719 128.441406 141.007812 128.441406 141.257812 128.441406 C 141.503906 128.441406 141.75 128.351562 141.9375 128.195312 C 142.121094 128.070312 142.304688 127.855469 142.335938 127.609375 C 142.335938 127.515625 142.367188 127.421875 142.367188 127.363281 C 142.398438 127.175781 142.429688 127.023438 142.429688 126.867188 C 142.429688 126.621094 142.398438 126.496094 142.335938 126.3125 C 142.277344 126.035156 142.246094 125.789062 142.089844 125.539062 C 141.996094 125.386719 141.90625 125.230469 141.78125 125.109375 C 141.628906 124.859375 141.441406 124.613281 141.289062 124.335938 C 141.132812 124.058594 140.980469 123.78125 140.792969 123.53125 C 140.050781 122.515625 139.3125 121.496094 138.601562 120.476562 C 137.765625 119.300781 136.808594 118.222656 135.914062 117.109375 C 135.113281 116.121094 134.339844 115.132812 133.539062 114.175781 C 133.320312 113.929688 133.105469 113.652344 132.890625 113.40625 C 132.640625 113.128906 132.363281 112.910156 132.117188 112.664062 C 131.871094 112.417969 131.589844 112.167969 131.34375 111.921875 C 131.222656 111.800781 131.097656 111.675781 130.972656 111.550781 C 130.542969 111.152344 129.984375 110.933594 129.398438 110.902344 C 129.027344 110.75 128.6875 110.6875 128.289062 110.8125 C 128.070312 110.871094 127.917969 110.964844 127.730469 111.089844 C 127.269531 111.460938 127.050781 112.015625 127.113281 112.570312 C 127.113281 112.632812 127.144531 112.695312 127.144531 112.757812 C 127.082031 113.066406 127.113281 113.40625 127.207031 113.746094 C 127.300781 114.085938 127.453125 114.300781 127.640625 114.578125 C 127.824219 114.824219 127.980469 115.074219 128.164062 115.351562 C 128.320312 115.597656 128.503906 115.84375 128.660156 116.089844 C 128.90625 116.523438 129.214844 116.894531 129.523438 117.265625 C 130.292969 118.191406 131.066406 119.085938 131.871094 119.980469 C 132.640625 120.878906 133.414062 121.773438 134.1875 122.667969 C 134.957031 123.5625 135.792969 124.398438 136.625 125.230469 C 137.089844 125.695312 137.550781 126.1875 138.046875 126.621094 C 138.292969 126.835938 138.539062 127.054688 138.785156 127.300781 C 138.910156 127.394531 139.003906 127.515625 139.125 127.609375 C 139.1875 127.671875 139.25 127.703125 139.28125 127.761719 C 139.464844 127.917969 139.621094 128.042969 139.804688 128.132812 C 139.804688 128.132812 139.804688 128.132812 139.773438 128.132812 C 139.804688 128.132812 139.804688 128.164062 139.835938 128.164062 C 139.898438 128.195312 139.929688 128.226562 139.992188 128.226562 C 140.113281 128.226562 140.300781 128.351562 140.515625 128.382812 Z M 140.515625 128.382812 " fill-opacity="1" fill-rule="nonzero"/><g clip-path="url(#da415b1df1)"><path fill="#e2ffbc" d="M 129.738281 146.230469 C 129.832031 146.011719 129.894531 145.796875 129.925781 145.582031 C 129.925781 145.300781 129.769531 144.839844 129.554688 144.652344 C 129.367188 144.5 129.214844 144.285156 129.058594 144.128906 C 129.058594 144.128906 129.089844 144.160156 129.089844 144.160156 C 129.027344 144.097656 128.96875 144.035156 128.90625 143.972656 C 128.9375 143.972656 128.9375 144.003906 128.96875 144.003906 C 128.628906 143.726562 128.320312 143.449219 127.980469 143.203125 C 128.101562 143.296875 128.226562 143.386719 128.347656 143.480469 C 128.011719 143.171875 127.671875 142.863281 127.269531 142.617188 C 126.992188 142.429688 126.714844 142.246094 126.433594 142.058594 C 125.878906 141.691406 125.355469 141.320312 124.796875 140.980469 C 123.65625 140.300781 122.484375 139.621094 121.339844 138.972656 C 119.023438 137.707031 116.675781 136.378906 114.332031 135.144531 C 113.1875 134.558594 112.078125 133.96875 110.933594 133.351562 C 109.824219 132.734375 108.679688 132.179688 107.566406 131.5625 C 106.519531 130.976562 105.5 130.296875 104.480469 129.679688 C 103.339844 128.96875 102.164062 128.382812 100.898438 127.886719 C 99.941406 127.515625 98.921875 127.269531 97.933594 127.023438 C 97.441406 126.898438 96.945312 126.804688 96.453125 126.683594 C 95.957031 126.589844 95.464844 126.4375 95 126.25 C 94.816406 126.1875 94.660156 126.125 94.476562 126.066406 C 94.105469 125.878906 93.703125 125.695312 93.332031 125.539062 C 93.457031 125.601562 93.609375 125.664062 93.734375 125.695312 C 93.273438 125.507812 92.871094 125.230469 92.40625 125.078125 C 92.191406 125.015625 91.851562 125.015625 91.636719 125.078125 C 91.328125 125.167969 91.078125 125.355469 90.863281 125.601562 C 90.492188 126.097656 90.492188 126.683594 90.738281 127.238281 C 90.863281 127.484375 91.078125 127.703125 91.296875 127.917969 C 91.417969 128.042969 91.542969 128.164062 91.664062 128.289062 C 92.035156 128.628906 92.4375 128.875 92.839844 129.121094 C 93.609375 129.554688 94.414062 129.894531 95.21875 130.203125 C 95.0625 130.140625 94.90625 130.078125 94.785156 130.015625 C 95.554688 130.355469 96.328125 130.664062 97.132812 130.945312 C 97.6875 131.128906 98.242188 131.34375 98.796875 131.5625 C 100.40625 132.273438 101.792969 133.289062 103.152344 134.371094 C 104.695312 135.542969 106.300781 136.6875 108.03125 137.613281 C 111.644531 139.558594 115.320312 141.351562 118.960938 143.171875 C 120.011719 143.695312 121.0625 144.160156 122.113281 144.652344 C 122.792969 144.960938 123.5 145.269531 124.210938 145.550781 C 124.769531 145.765625 125.292969 145.980469 125.847656 146.167969 C 125.847656 146.167969 125.847656 146.167969 125.816406 146.167969 C 125.878906 146.199219 125.941406 146.199219 126.003906 146.230469 C 126.066406 146.257812 126.15625 146.257812 126.21875 146.289062 C 126.375 146.320312 126.527344 146.382812 126.683594 146.414062 C 127.082031 146.507812 127.546875 146.691406 127.980469 146.691406 C 127.855469 146.660156 127.699219 146.660156 127.578125 146.628906 C 127.824219 146.660156 128.101562 146.660156 128.320312 146.753906 C 128.8125 147 129.492188 146.722656 129.738281 146.230469 Z M 129.738281 146.230469 " fill-opacity="1" fill-rule="nonzero"/></g><path fill="#e2ffbc" d="M 119.425781 163.644531 C 119.980469 163.644531 120.539062 163.550781 121.09375 163.519531 C 121.773438 163.457031 122.453125 163.304688 123.132812 163.210938 C 123.378906 163.179688 123.625 163.121094 123.839844 163.027344 C 124.242188 162.902344 124.582031 162.6875 124.796875 162.316406 C 124.984375 162.039062 125.046875 161.699219 124.953125 161.359375 C 124.921875 161.203125 124.859375 161.050781 124.769531 160.925781 C 124.613281 160.679688 124.367188 160.496094 124.121094 160.339844 C 123.808594 160.1875 123.5 160.03125 123.191406 159.9375 C 122.730469 159.785156 122.296875 159.628906 121.863281 159.476562 C 121.894531 159.476562 121.925781 159.507812 121.957031 159.507812 C 121.835938 159.476562 121.710938 159.414062 121.617188 159.382812 C 121.496094 159.351562 121.402344 159.320312 121.277344 159.320312 C 121.0625 159.257812 120.847656 159.230469 120.628906 159.167969 C 120.199219 159.074219 119.765625 159.011719 119.332031 158.949219 C 118.253906 158.796875 117.171875 158.734375 116.089844 158.671875 C 115.195312 158.609375 114.332031 158.550781 113.433594 158.550781 C 112.539062 158.550781 111.675781 158.550781 110.78125 158.550781 C 110.316406 158.550781 109.882812 158.582031 109.421875 158.582031 C 108.988281 158.582031 108.527344 158.640625 108.09375 158.671875 C 107.199219 158.765625 106.300781 158.859375 105.40625 158.980469 C 104.789062 159.042969 104.203125 159.105469 103.585938 159.230469 C 103.152344 159.320312 102.71875 159.382812 102.320312 159.476562 C 101.453125 159.660156 100.589844 159.785156 99.726562 160 C 99.261719 160.125 98.800781 160.246094 98.304688 160.371094 C 97.8125 160.496094 97.316406 160.585938 96.851562 160.710938 C 96.542969 160.773438 96.203125 160.863281 95.925781 161.019531 C 95.835938 161.082031 95.742188 161.144531 95.617188 161.203125 C 95.554688 161.234375 95.433594 161.328125 95.339844 161.359375 C 95.402344 161.328125 95.464844 161.296875 95.339844 161.359375 C 95.21875 161.421875 95.125 161.453125 95 161.511719 C 94.90625 161.542969 94.816406 161.605469 94.722656 161.636719 C 94.507812 161.730469 94.289062 161.851562 94.074219 161.976562 C 93.703125 162.160156 93.765625 162.808594 94.199219 162.902344 C 94.320312 162.933594 94.414062 162.933594 94.539062 162.964844 C 94.570312 162.964844 94.628906 162.996094 94.660156 162.996094 C 94.722656 162.996094 94.753906 163.027344 94.785156 163.027344 C 94.816406 163.027344 94.878906 163.027344 94.96875 163.058594 C 95.0625 163.058594 95.15625 163.089844 95.277344 163.089844 C 95.339844 163.089844 95.433594 163.121094 95.496094 163.121094 C 95.527344 163.121094 95.527344 163.121094 95.554688 163.121094 C 95.648438 163.121094 95.773438 163.148438 95.867188 163.179688 C 95.957031 163.210938 96.082031 163.210938 96.175781 163.242188 C 96.515625 163.335938 96.824219 163.335938 97.164062 163.335938 C 97.65625 163.335938 98.152344 163.304688 98.675781 163.304688 C 99.136719 163.304688 99.632812 163.367188 100.097656 163.367188 C 101.082031 163.398438 102.042969 163.398438 103.027344 163.429688 C 104.015625 163.457031 105.003906 163.488281 105.960938 163.519531 C 106.949219 163.550781 107.9375 163.582031 108.894531 163.613281 C 109.390625 163.644531 109.914062 163.613281 110.410156 163.613281 C 110.902344 163.613281 111.367188 163.613281 111.859375 163.613281 C 113.835938 163.613281 115.78125 163.613281 117.757812 163.675781 C 118.3125 163.675781 118.871094 163.675781 119.425781 163.644531 Z M 119.425781 163.644531 " fill-opacity="1" fill-rule="nonzero"/><path fill="#e2ffbc" d="M 94.785156 162.996094 C 94.628906 162.964844 95 163.027344 94.785156 162.996094 Z M 94.785156 162.996094 " fill-opacity="1" fill-rule="nonzero"/><g fill="#000000" fill-opacity="1"><g transform="translate(15.333461, 199.687611)"><g><path d="M 21.890625 -18.71875 C 20.960938 -19.738281 19.863281 -20.539062 18.59375 -21.125 C 17.332031 -21.707031 16.054688 -22 14.765625 -22 C 13.085938 -22 11.546875 -21.597656 10.140625 -20.796875 C 8.742188 -19.992188 7.640625 -18.890625 6.828125 -17.484375 C 6.023438 -16.085938 5.625 -14.546875 5.625 -12.859375 C 5.625 -11.203125 6.03125 -9.671875 6.84375 -8.265625 C 7.664062 -6.867188 8.769531 -5.765625 10.15625 -4.953125 C 11.550781 -4.140625 13.085938 -3.734375 14.765625 -3.734375 C 16.035156 -3.734375 17.296875 -4.003906 18.546875 -4.546875 C 19.804688 -5.097656 20.921875 -5.847656 21.890625 -6.796875 L 24.453125 -3.953125 C 23.128906 -2.628906 21.59375 -1.582031 19.84375 -0.8125 C 18.09375 -0.0507812 16.328125 0.328125 14.546875 0.328125 C 12.085938 0.328125 9.835938 -0.253906 7.796875 -1.421875 C 5.765625 -2.585938 4.164062 -4.171875 3 -6.171875 C 1.832031 -8.171875 1.25 -10.390625 1.25 -12.828125 C 1.25 -15.242188 1.835938 -17.445312 3.015625 -19.4375 C 4.191406 -21.4375 5.8125 -23.007812 7.875 -24.15625 C 9.9375 -25.300781 12.207031 -25.875 14.6875 -25.875 C 16.488281 -25.875 18.25 -25.515625 19.96875 -24.796875 C 21.6875 -24.078125 23.164062 -23.097656 24.40625 -21.859375 Z M 21.890625 -18.71875 "/></g></g></g><g fill="#000000" fill-opacity="1"><g transform="translate(40.807688, 199.687611)"><g><path d="M 14.796875 -25.875 C 17.304688 -25.875 19.597656 -25.300781 21.671875 -24.15625 C 23.742188 -23.007812 25.375 -21.4375 26.5625 -19.4375 C 27.757812 -17.445312 28.359375 -15.242188 28.359375 -12.828125 C 28.359375 -10.390625 27.757812 -8.171875 26.5625 -6.171875 C 25.375 -4.171875 23.742188 -2.585938 21.671875 -1.421875 C 19.597656 -0.253906 17.304688 0.328125 14.796875 0.328125 C 12.285156 0.328125 9.992188 -0.253906 7.921875 -1.421875 C 5.859375 -2.585938 4.226562 -4.171875 3.03125 -6.171875 C 1.84375 -8.171875 1.25 -10.390625 1.25 -12.828125 C 1.25 -15.242188 1.84375 -17.445312 3.03125 -19.4375 C 4.226562 -21.4375 5.859375 -23.007812 7.921875 -24.15625 C 9.992188 -25.300781 12.285156 -25.875 14.796875 -25.875 Z M 14.84375 -21.96875 C 13.1875 -21.96875 11.648438 -21.554688 10.234375 -20.734375 C 8.816406 -19.921875 7.691406 -18.816406 6.859375 -17.421875 C 6.035156 -16.035156 5.625 -14.503906 5.625 -12.828125 C 5.625 -11.148438 6.046875 -9.601562 6.890625 -8.1875 C 7.734375 -6.769531 8.851562 -5.644531 10.25 -4.8125 C 11.65625 -3.988281 13.1875 -3.578125 14.84375 -3.578125 C 16.5 -3.578125 18.019531 -3.988281 19.40625 -4.8125 C 20.789062 -5.644531 21.890625 -6.769531 22.703125 -8.1875 C 23.523438 -9.601562 23.9375 -11.148438 23.9375 -12.828125 C 23.9375 -14.503906 23.523438 -16.035156 22.703125 -17.421875 C 21.890625 -18.816406 20.789062 -19.921875 19.40625 -20.734375 C 18.019531 -21.554688 16.5 -21.96875 14.84375 -21.96875 Z M 14.84375 -21.96875 "/></g></g></g><g fill="#000000" fill-opacity="1"><g transform="translate(70.411877, 199.687611)"><g><path d="M 21.3125 -7.09375 L 21.3125 -25.578125 L 25.546875 -25.578125 L 25.546875 0 L 21.3125 0 L 7.671875 -18.421875 L 7.671875 0 L 3.359375 0 L 3.359375 -25.578125 L 7.609375 -25.578125 Z M 21.3125 -7.09375 "/></g></g></g><g fill="#000000" fill-opacity="1"><g transform="translate(99.358191, 199.687611)"><g><path d="M 0.328125 -21.703125 L 0.328125 -25.578125 L 20.828125 -25.578125 L 20.828125 -21.703125 L 12.71875 -21.703125 L 12.71875 0 L 8.40625 0 L 8.40625 -21.703125 Z M 0.328125 -21.703125 "/></g></g></g><g fill="#000000" fill-opacity="1"><g transform="translate(120.519704, 199.687611)"><g><path d="M 24.484375 0 L 19.59375 0 L 14.90625 -7.75 C 14.664062 -7.726562 14.273438 -7.71875 13.734375 -7.71875 L 7.671875 -7.71875 L 7.671875 0 L 3.359375 0 L 3.359375 -25.578125 L 13.734375 -25.578125 C 17.003906 -25.578125 19.539062 -24.816406 21.34375 -23.296875 C 23.144531 -21.773438 24.046875 -19.625 24.046875 -16.84375 C 24.046875 -14.800781 23.585938 -13.070312 22.671875 -11.65625 C 21.765625 -10.238281 20.457031 -9.203125 18.75 -8.546875 Z M 7.671875 -11.578125 L 13.734375 -11.578125 C 15.734375 -11.578125 17.269531 -12.007812 18.34375 -12.875 C 19.414062 -13.75 19.953125 -15.035156 19.953125 -16.734375 C 19.953125 -18.390625 19.414062 -19.628906 18.34375 -20.453125 C 17.269531 -21.285156 15.734375 -21.703125 13.734375 -21.703125 L 7.671875 -21.703125 Z M 7.671875 -11.578125 "/></g></g></g><g fill="#000000" fill-opacity="1"><g transform="translate(146.944182, 199.687611)"><g><path d="M 14.796875 -25.875 C 17.304688 -25.875 19.597656 -25.300781 21.671875 -24.15625 C 23.742188 -23.007812 25.375 -21.4375 26.5625 -19.4375 C 27.757812 -17.445312 28.359375 -15.242188 28.359375 -12.828125 C 28.359375 -10.390625 27.757812 -8.171875 26.5625 -6.171875 C 25.375 -4.171875 23.742188 -2.585938 21.671875 -1.421875 C 19.597656 -0.253906 17.304688 0.328125 14.796875 0.328125 C 12.285156 0.328125 9.992188 -0.253906 7.921875 -1.421875 C 5.859375 -2.585938 4.226562 -4.171875 3.03125 -6.171875 C 1.84375 -8.171875 1.25 -10.390625 1.25 -12.828125 C 1.25 -15.242188 1.84375 -17.445312 3.03125 -19.4375 C 4.226562 -21.4375 5.859375 -23.007812 7.921875 -24.15625 C 9.992188 -25.300781 12.285156 -25.875 14.796875 -25.875 Z M 14.84375 -21.96875 C 13.1875 -21.96875 11.648438 -21.554688 10.234375 -20.734375 C 8.816406 -19.921875 7.691406 -18.816406 6.859375 -17.421875 C 6.035156 -16.035156 5.625 -14.503906 5.625 -12.828125 C 5.625 -11.148438 6.046875 -9.601562 6.890625 -8.1875 C 7.734375 -6.769531 8.851562 -5.644531 10.25 -4.8125 C 11.65625 -3.988281 13.1875 -3.578125 14.84375 -3.578125 C 16.5 -3.578125 18.019531 -3.988281 19.40625 -4.8125 C 20.789062 -5.644531 21.890625 -6.769531 22.703125 -8.1875 C 23.523438 -9.601562 23.9375 -11.148438 23.9375 -12.828125 C 23.9375 -14.503906 23.523438 -16.035156 22.703125 -17.421875 C 21.890625 -18.816406 20.789062 -19.921875 19.40625 -20.734375 C 18.019531 -21.554688 16.5 -21.96875 14.84375 -21.96875 Z M 14.84375 -21.96875 "/></g></g></g><g fill="#000000" fill-opacity="1"><g transform="translate(176.548371, 199.687611)"><g><path d="M 3.359375 0 L 3.359375 -25.578125 L 7.671875 -25.578125 L 7.671875 -3.90625 L 18.75 -3.90625 L 18.75 0 Z M 3.359375 0 "/></g></g></g><g fill="#000000" fill-opacity="1"><g transform="translate(196.065205, 199.687611)"><g/></g></g><g fill="#000000" fill-opacity="1"><g transform="translate(205.933258, 199.687611)"><g><path d="M 13.84375 -25.578125 C 16.382812 -25.578125 18.660156 -25.03125 20.671875 -23.9375 C 22.679688 -22.84375 24.25 -21.320312 25.375 -19.375 C 26.507812 -17.425781 27.078125 -15.234375 27.078125 -12.796875 C 27.078125 -10.359375 26.503906 -8.171875 25.359375 -6.234375 C 24.210938 -4.296875 22.628906 -2.769531 20.609375 -1.65625 C 18.585938 -0.550781 16.296875 0 13.734375 0 L 3.359375 0 L 3.359375 -25.578125 Z M 13.953125 -3.875 C 15.585938 -3.875 17.078125 -4.25 18.421875 -5 C 19.765625 -5.757812 20.816406 -6.816406 21.578125 -8.171875 C 22.347656 -9.523438 22.734375 -11.050781 22.734375 -12.75 C 22.734375 -14.457031 22.335938 -15.992188 21.546875 -17.359375 C 20.753906 -18.722656 19.675781 -19.785156 18.3125 -20.546875 C 16.945312 -21.316406 15.4375 -21.703125 13.78125 -21.703125 L 7.671875 -21.703125 L 7.671875 -3.875 Z M 13.953125 -3.875 "/></g></g><g transform="translate(234.258248, 199.687611)"><g><path d="M 3.359375 0 L 3.359375 -25.578125 L 21.640625 -25.578125 L 21.640625 -21.703125 L 7.671875 -21.703125 L 7.671875 -14.765625 L 20.171875 -14.765625 L 20.171875 -10.921875 L 7.671875 -10.921875 L 7.671875 -3.875 L 22.078125 -3.875 L 22.078125 0 Z M 3.359375 0 "/></g></g><g transform="translate(258.233981, 199.687611)"><g/></g></g><g fill="#000000" fill-opacity="1"><g transform="translate(268.102035, 199.687611)"><g><path d="M 10.3125 0 L 0.109375 -25.578125 L 4.75 -25.578125 L 12.640625 -4.78125 L 20.609375 -25.578125 L 25.109375 -25.578125 L 14.765625 0 Z M 10.3125 0 "/></g></g></g><g fill="#000000" fill-opacity="1"><g transform="translate(293.320417, 199.687611)"><g><path d="M 3.359375 0 L 3.359375 -25.578125 L 7.671875 -25.578125 L 7.671875 0 Z M 3.359375 0 "/></g></g></g><g fill="#000000" fill-opacity="1"><g transform="translate(304.358034, 199.687611)"><g><path d="M 13.84375 -25.578125 C 16.382812 -25.578125 18.660156 -25.03125 20.671875 -23.9375 C 22.679688 -22.84375 24.25 -21.320312 25.375 -19.375 C 26.507812 -17.425781 27.078125 -15.234375 27.078125 -12.796875 C 27.078125 -10.359375 26.503906 -8.171875 25.359375 -6.234375 C 24.210938 -4.296875 22.628906 -2.769531 20.609375 -1.65625 C 18.585938 -0.550781 16.296875 0 13.734375 0 L 3.359375 0 L 3.359375 -25.578125 Z M 13.953125 -3.875 C 15.585938 -3.875 17.078125 -4.25 18.421875 -5 C 19.765625 -5.757812 20.816406 -6.816406 21.578125 -8.171875 C 22.347656 -9.523438 22.734375 -11.050781 22.734375 -12.75 C 22.734375 -14.457031 22.335938 -15.992188 21.546875 -17.359375 C 20.753906 -18.722656 19.675781 -19.785156 18.3125 -20.546875 C 16.945312 -21.316406 15.4375 -21.703125 13.78125 -21.703125 L 7.671875 -21.703125 L 7.671875 -3.875 Z M 13.953125 -3.875 "/></g></g><g transform="translate(332.683024, 199.687611)"><g><path d="M 26.9375 0 L 22.328125 0 L 19.875 -5.78125 L 6.984375 -5.78125 L 4.53125 0 L 0.03125 0 L 11.328125 -25.578125 L 15.75 -25.578125 Z M 13.40625 -20.984375 L 8.59375 -9.609375 L 18.234375 -9.609375 Z M 13.40625 -20.984375 "/></g></g></g><path fill="#c8fbfd" d="M 136.902344 213.664062 C 136.933594 214.128906 136.871094 213.601562 136.902344 213.664062 Z M 136.902344 213.664062 " fill-opacity="1" fill-rule="nonzero"/><path fill="#c8fbfd" d="M 219.625 227.097656 C 219.535156 227.21875 219.410156 227.34375 219.75 226.941406 C 219.75 226.972656 219.71875 226.972656 219.71875 227.003906 C 219.6875 227.066406 219.65625 227.066406 219.625 227.097656 Z M 219.625 227.097656 " fill-opacity="1" fill-rule="nonzero"/><g clip-path="url(#d970f3d250)"><path fill="#c8fbfd" d="M 138.167969 210.667969 C 138.386719 211.070312 138.601562 211.472656 138.847656 211.84375 C 138.910156 211.902344 138.972656 211.996094 139.003906 212.058594 C 139.035156 212.089844 139.035156 212.121094 139.0625 212.121094 C 139.0625 212.121094 139.09375 212.152344 139.09375 212.152344 C 139.25 212.335938 139.375 212.519531 139.496094 212.707031 C 140.082031 213.480469 140.453125 214.375 140.886719 215.238281 C 141.289062 216.074219 141.8125 216.8125 142.277344 217.617188 C 143.265625 219.222656 144.160156 220.890625 145.210938 222.433594 C 145.734375 223.207031 146.257812 223.945312 146.816406 224.6875 C 146.816406 224.6875 146.816406 224.71875 146.847656 224.71875 C 146.90625 224.78125 146.96875 224.871094 147.03125 224.933594 C 147.183594 225.121094 147.308594 225.304688 147.464844 225.492188 C 147.773438 225.890625 148.113281 226.261719 148.453125 226.664062 C 149.6875 228.085938 150.984375 229.441406 152.34375 230.738281 C 153.699219 232.035156 155.121094 233.273438 156.601562 234.476562 C 156.789062 234.628906 156.972656 234.753906 157.160156 234.910156 C 156.664062 234.507812 157.3125 235.03125 157.40625 235.09375 C 157.808594 235.402344 158.238281 235.710938 158.640625 236.019531 C 159.414062 236.574219 160.183594 237.101562 160.957031 237.59375 C 164.199219 239.726562 167.65625 241.578125 171.207031 243.152344 C 171.332031 243.214844 171.457031 243.277344 171.609375 243.308594 C 171.609375 243.308594 171.640625 243.308594 171.640625 243.308594 C 171.886719 243.398438 172.105469 243.492188 172.351562 243.585938 C 172.9375 243.832031 173.523438 244.046875 174.113281 244.265625 C 175.191406 244.636719 176.273438 244.976562 177.355469 245.285156 C 178.496094 245.59375 179.667969 245.808594 180.84375 245.992188 C 180.84375 245.992188 180.875 245.992188 180.875 245.992188 C 180.996094 246.023438 181.121094 246.023438 181.246094 246.023438 C 181.492188 246.054688 181.738281 246.085938 181.984375 246.085938 C 182.542969 246.148438 183.128906 246.179688 183.683594 246.179688 C 184.796875 246.210938 185.90625 246.179688 187.019531 246.085938 C 187.542969 246.054688 188.039062 245.992188 188.5625 245.933594 C 188.59375 245.933594 188.65625 245.933594 188.71875 245.933594 C 188.6875 245.933594 188.65625 245.933594 188.625 245.933594 C 188.71875 245.933594 188.839844 245.902344 188.933594 245.871094 C 189.242188 245.808594 189.582031 245.777344 189.890625 245.714844 C 192.082031 245.3125 194.273438 244.726562 196.375 243.988281 C 196.867188 243.800781 197.363281 243.617188 197.855469 243.429688 C 198.074219 243.339844 198.320312 243.246094 198.535156 243.152344 C 198.660156 243.089844 198.8125 243.03125 198.9375 243 C 199 242.96875 199.0625 242.9375 199.09375 242.9375 C 200.109375 242.472656 201.128906 242.011719 202.148438 241.484375 C 203.941406 240.589844 205.636719 239.539062 207.304688 238.429688 C 207.707031 238.179688 208.078125 237.902344 208.449219 237.625 C 208.632812 237.503906 208.820312 237.347656 209.035156 237.222656 C 209.25 237.070312 209.5 236.792969 209.714844 236.730469 C 209.777344 236.699219 209.808594 236.667969 209.867188 236.605469 C 210.054688 236.453125 210.238281 236.328125 210.425781 236.175781 C 210.796875 235.867188 211.195312 235.558594 211.566406 235.25 C 213.019531 234.011719 214.4375 232.683594 215.796875 231.328125 C 217.125 230 218.390625 228.578125 219.566406 227.097656 C 219.59375 227.066406 219.625 227.035156 219.625 227.003906 C 219.65625 226.972656 219.65625 226.972656 219.6875 226.941406 C 219.6875 226.941406 219.6875 226.941406 219.71875 226.910156 C 219.75 226.878906 219.78125 226.847656 219.78125 226.816406 C 219.78125 226.816406 219.75 226.847656 219.75 226.847656 C 219.84375 226.695312 219.964844 226.570312 220.058594 226.417969 C 220.367188 226.015625 220.644531 225.582031 220.953125 225.183594 C 221.480469 224.410156 221.972656 223.636719 222.46875 222.867188 C 223.457031 221.289062 224.320312 219.625 225.0625 217.925781 C 225.09375 217.863281 225.152344 217.710938 225.152344 217.679688 C 225.246094 217.460938 225.339844 217.246094 225.402344 217.03125 C 225.585938 216.566406 225.742188 216.132812 225.894531 215.671875 C 226.078125 215.117188 226.328125 214.589844 226.574219 214.066406 C 226.574219 214.066406 226.574219 214.035156 226.605469 214.035156 C 226.605469 214.003906 226.636719 213.972656 226.636719 213.941406 C 226.636719 213.910156 226.667969 213.878906 226.667969 213.820312 C 226.757812 213.570312 226.851562 213.292969 226.945312 213.046875 C 227.128906 212.523438 227.222656 211.871094 227.53125 211.410156 C 227.808594 210.976562 228.210938 210.636719 228.519531 210.265625 C 228.796875 209.925781 229.320312 209.835938 229.722656 209.957031 C 230.1875 210.082031 230.433594 210.421875 230.589844 210.824219 C 230.804688 211.378906 231.082031 211.933594 231.050781 212.523438 C 231.019531 213.140625 230.898438 213.789062 230.804688 214.4375 C 230.742188 214.898438 230.648438 215.363281 230.589844 215.824219 C 230.558594 215.980469 230.433594 216.84375 230.558594 216.011719 C 230.496094 216.472656 230.402344 216.84375 230.28125 217.308594 C 229.632812 219.34375 228.796875 221.320312 227.839844 223.238281 C 226.019531 226.910156 223.546875 230.246094 220.800781 233.273438 C 217.988281 236.359375 214.777344 238.921875 211.320312 241.238281 C 207.644531 243.707031 203.632812 245.808594 199.523438 247.476562 C 195.046875 249.265625 190.261719 250.410156 185.445312 250.53125 C 180.535156 250.65625 175.6875 249.542969 171.148438 247.722656 C 163.335938 244.574219 156.078125 240.035156 149.964844 234.230469 C 147 231.417969 144.3125 228.300781 142.027344 224.902344 C 140.949219 223.328125 139.835938 221.660156 139.0625 219.933594 C 138.816406 219.375 138.539062 218.789062 138.355469 218.203125 C 138.292969 217.988281 138.199219 217.769531 138.136719 217.554688 C 138.261719 218.019531 138.078125 217.371094 138.046875 217.308594 C 137.984375 217.152344 137.921875 216.96875 137.828125 216.8125 C 137.457031 215.917969 137.117188 215.023438 136.964844 214.066406 C 136.933594 213.789062 136.902344 213.664062 136.871094 213.632812 C 136.871094 213.570312 136.871094 213.507812 136.839844 213.417969 C 136.839844 213.324219 136.839844 213.230469 136.839844 213.171875 C 136.839844 212.953125 136.839844 212.738281 136.839844 212.523438 C 136.839844 212.027344 136.75 211.5625 136.71875 211.070312 C 136.6875 210.296875 137.828125 210.050781 138.167969 210.667969 Z M 138.167969 210.667969 " fill-opacity="1" fill-rule="nonzero"/></g><g clip-path="url(#76df4be7e2)"><path fill="#c8fbfd" d="M 267.457031 209.308594 C 268.691406 209.339844 269.925781 209.308594 271.195312 209.308594 C 271.8125 209.308594 272.429688 209.308594 273.046875 209.308594 C 273.355469 209.308594 273.632812 209.308594 273.941406 209.308594 C 274.28125 209.339844 274.683594 209.402344 275.054688 209.464844 C 275.734375 209.496094 276.441406 209.558594 277.121094 209.617188 C 277.492188 209.648438 277.863281 209.679688 278.234375 209.710938 C 278.695312 209.742188 279.160156 209.773438 279.59375 209.867188 C 279.777344 209.898438 279.933594 209.925781 280.117188 209.988281 C 280.117188 209.988281 280.148438 209.988281 280.148438 209.988281 C 280.148438 209.988281 280.148438 209.988281 280.179688 209.988281 C 280.300781 209.988281 280.394531 210.019531 280.519531 210.019531 C 280.890625 210.050781 281.261719 210.082031 281.628906 210.113281 C 282 210.144531 282.371094 210.175781 282.742188 210.207031 C 283.175781 210.238281 283.605469 210.328125 284.007812 210.421875 C 284.285156 210.484375 284.503906 210.792969 284.503906 211.070312 C 284.503906 211.347656 284.316406 211.65625 284.007812 211.71875 C 283.574219 211.78125 283.175781 211.871094 282.742188 211.902344 C 282.371094 211.933594 282 211.933594 281.628906 211.964844 C 281.261719 211.996094 280.890625 211.996094 280.519531 212.027344 C 280.425781 212.027344 280.332031 212.027344 280.210938 212.058594 C 280.179688 212.058594 280.117188 212.058594 280.085938 212.058594 C 279.933594 212.089844 279.746094 212.121094 279.59375 212.152344 C 278.789062 212.304688 277.925781 212.273438 277.121094 212.335938 C 276.441406 212.367188 275.734375 212.429688 275.054688 212.460938 C 273.972656 212.675781 272.859375 212.644531 271.75 212.644531 C 270.699219 212.675781 269.648438 212.675781 268.628906 212.707031 C 267.582031 212.738281 266.5 212.800781 265.449219 212.859375 C 264.398438 212.921875 263.351562 212.984375 262.332031 213.046875 C 260.230469 213.171875 258.164062 213.324219 256.0625 213.449219 C 253.992188 213.570312 251.894531 213.632812 249.792969 213.726562 C 248.621094 213.789062 247.417969 213.847656 246.242188 213.910156 C 245.65625 213.941406 245.070312 213.878906 244.484375 213.847656 C 244.082031 213.820312 243.679688 213.820312 243.28125 213.757812 C 243.15625 213.726562 243.03125 213.695312 242.878906 213.695312 C 242.628906 213.632812 242.414062 213.570312 242.167969 213.480469 C 242.292969 213.539062 242.382812 213.570312 242.507812 213.632812 C 242.414062 213.601562 242.292969 213.570312 242.199219 213.539062 C 241.980469 213.480469 241.796875 213.386719 241.644531 213.230469 C 241.796875 213.355469 241.828125 213.386719 241.734375 213.292969 C 241.613281 213.199219 241.488281 213.109375 241.363281 213.015625 C 241.273438 212.984375 241.210938 212.953125 241.117188 212.953125 C 240.746094 212.832031 240.59375 212.242188 240.996094 212.058594 C 241.054688 212.027344 241.117188 211.996094 241.210938 211.964844 C 241.210938 211.964844 241.242188 211.933594 241.273438 211.933594 C 241.304688 211.902344 241.304688 211.902344 241.304688 211.871094 C 241.332031 211.8125 241.394531 211.75 241.457031 211.6875 C 241.671875 211.441406 241.921875 211.253906 242.199219 211.101562 C 242.753906 210.824219 243.371094 210.667969 243.988281 210.546875 C 244.667969 210.421875 245.347656 210.238281 246.058594 210.175781 C 246.582031 210.113281 247.140625 210.082031 247.664062 210.019531 C 249.855469 209.835938 252.046875 209.648438 254.242188 209.496094 C 256.433594 209.339844 258.625 209.308594 260.847656 209.308594 C 263.074219 209.25 265.265625 209.277344 267.457031 209.308594 Z M 267.457031 209.308594 " fill-opacity="1" fill-rule="nonzero"/></g><path fill="#c8fbfd" d="M 241.273438 211.84375 L 241.332031 211.75 C 241.332031 211.75 241.332031 211.78125 241.304688 211.78125 C 241.304688 211.78125 241.273438 211.8125 241.273438 211.84375 Z M 241.273438 211.84375 " fill-opacity="1" fill-rule="nonzero"/><path fill="#c8fbfd" d="M 234.820312 234.136719 C 235.589844 234.351562 236.363281 234.691406 237.074219 235.0625 C 237.691406 235.371094 238.246094 235.773438 238.800781 236.175781 C 239.359375 236.574219 239.914062 236.976562 240.46875 237.410156 C 241.273438 238.027344 242.105469 238.613281 242.941406 239.230469 C 242.785156 239.109375 242.628906 239.015625 242.507812 238.890625 C 243.25 239.476562 244.050781 240.035156 244.792969 240.621094 C 245.378906 241.085938 245.964844 241.546875 246.550781 242.011719 C 246.921875 242.289062 247.292969 242.566406 247.664062 242.84375 C 248.25 243.246094 248.867188 243.648438 249.394531 244.140625 C 249.269531 244.046875 249.144531 243.957031 249.054688 243.863281 C 249.546875 244.234375 250.042969 244.636719 250.535156 245.003906 C 251.03125 245.375 251.523438 245.746094 252.046875 246.117188 C 252.296875 246.300781 252.574219 246.488281 252.820312 246.671875 C 253.007812 246.796875 253.222656 246.921875 253.375 247.074219 C 253.5 247.199219 253.59375 247.320312 253.714844 247.414062 C 254.023438 247.722656 254.117188 248.277344 253.871094 248.648438 C 253.625 249.050781 253.191406 249.207031 252.695312 249.113281 C 252.542969 249.082031 252.359375 249.050781 252.203125 249.019531 C 251.988281 248.957031 251.738281 248.835938 251.523438 248.742188 C 251.246094 248.617188 250.9375 248.496094 250.660156 248.371094 C 250.074219 248.09375 249.484375 247.816406 248.867188 247.570312 C 248.992188 247.628906 249.117188 247.660156 249.238281 247.722656 C 248.621094 247.476562 248.035156 247.199219 247.449219 246.921875 C 246.644531 246.582031 245.902344 246.117188 245.164062 245.683594 C 244.453125 245.285156 243.710938 244.851562 243 244.449219 C 241.425781 243.523438 239.945312 242.441406 238.492188 241.300781 C 237.90625 240.835938 237.351562 240.375 236.765625 239.910156 C 236.117188 239.417969 235.46875 238.953125 234.820312 238.519531 C 234.480469 238.273438 234.140625 238.058594 233.769531 237.84375 C 233.582031 237.71875 233.429688 237.625 233.242188 237.53125 C 233.152344 237.472656 233.058594 237.441406 232.964844 237.378906 C 232.84375 237.316406 232.75 237.253906 232.65625 237.195312 C 232.6875 237.222656 232.6875 237.222656 232.71875 237.253906 C 232.566406 237.132812 232.378906 237.039062 232.195312 236.945312 C 232.132812 236.914062 232.039062 236.855469 231.945312 236.824219 C 231.824219 236.761719 231.730469 236.667969 231.636719 236.605469 C 231.546875 236.546875 231.421875 236.484375 231.328125 236.421875 C 230.988281 236.175781 230.742188 235.835938 230.742188 235.402344 C 230.742188 235.03125 230.957031 234.539062 231.328125 234.382812 C 231.484375 234.320312 231.667969 234.230469 231.824219 234.167969 C 231.914062 234.136719 231.976562 234.136719 232.070312 234.105469 C 232.132812 234.074219 232.195312 234.042969 232.253906 234.042969 C 232.410156 234.011719 232.566406 234.011719 232.71875 233.980469 C 232.8125 233.980469 232.875 233.980469 232.964844 233.949219 C 233.121094 233.949219 233.273438 233.949219 233.460938 233.949219 C 233.890625 233.890625 234.355469 234.011719 234.820312 234.136719 Z M 234.820312 234.136719 " fill-opacity="1" fill-rule="nonzero"/><path fill="#c8fbfd" d="M 212.617188 254.023438 C 212.957031 254.054688 213.265625 254.238281 213.542969 254.453125 C 213.699219 254.578125 213.882812 254.703125 214.039062 254.824219 C 214.039062 254.824219 214.066406 254.855469 214.066406 254.855469 C 214.097656 254.886719 214.128906 254.917969 214.160156 254.949219 C 214.128906 254.917969 214.097656 254.917969 214.066406 254.886719 C 214.5625 255.320312 214.964844 255.90625 215.363281 256.429688 C 215.675781 256.832031 215.953125 257.265625 216.230469 257.695312 C 216.722656 258.5 217.21875 259.332031 217.804688 260.105469 C 218.824219 261.371094 220.121094 262.390625 221.230469 263.5625 C 222.375 264.738281 223.394531 266.066406 224.289062 267.453125 C 226.019531 270.109375 227.222656 273.074219 228.394531 275.976562 C 228.984375 277.429688 229.570312 278.910156 230.15625 280.363281 C 230.558594 281.289062 230.988281 282.214844 231.421875 283.109375 C 231.636719 283.574219 231.886719 284.066406 232.101562 284.53125 C 232.226562 284.777344 232.347656 284.992188 232.472656 285.242188 C 232.59375 285.457031 232.6875 285.703125 232.8125 285.917969 C 232.964844 286.167969 233.089844 286.445312 233.242188 286.691406 C 233.304688 286.816406 233.367188 286.9375 233.429688 287.0625 C 233.429688 287.09375 233.523438 287.246094 233.523438 287.308594 C 233.550781 287.464844 233.550781 287.648438 233.582031 287.804688 C 233.582031 287.863281 233.613281 287.957031 233.613281 288.019531 C 233.675781 288.234375 233.675781 288.484375 233.613281 288.699219 C 233.550781 288.914062 233.429688 289.101562 233.273438 289.253906 C 232.996094 289.53125 232.441406 289.75 232.007812 289.59375 C 231.515625 289.378906 230.929688 289.191406 230.558594 288.761719 C 230.339844 288.484375 230.125 288.234375 229.910156 287.957031 C 229.320312 287.308594 228.828125 286.539062 228.363281 285.796875 C 227.964844 285.179688 227.625 284.53125 227.285156 283.882812 C 226.605469 282.554688 225.957031 281.226562 225.339844 279.867188 C 224.105469 277.148438 223.023438 274.371094 221.601562 271.777344 C 220.863281 270.417969 220.058594 269.121094 219.132812 267.886719 C 218.238281 266.742188 217.1875 265.757812 216.167969 264.738281 C 214.964844 263.5625 213.882812 262.234375 213.140625 260.722656 C 212.710938 259.859375 212.339844 258.992188 211.96875 258.128906 C 212.03125 258.285156 212.09375 258.4375 212.152344 258.59375 C 212.03125 258.3125 211.90625 258.003906 211.753906 257.726562 C 211.597656 257.386719 211.382812 257.078125 211.226562 256.707031 C 211.195312 256.648438 211.164062 256.554688 211.136719 256.492188 C 211.105469 256.429688 211.074219 256.367188 211.042969 256.277344 C 210.917969 256.058594 210.855469 255.8125 210.824219 255.597656 C 210.765625 255.289062 210.734375 255.011719 210.703125 254.703125 C 210.671875 254.515625 210.796875 254.269531 210.917969 254.144531 C 211.074219 253.992188 211.257812 253.960938 211.472656 253.929688 C 212 253.929688 212.308594 253.929688 212.617188 254.023438 Z M 212.617188 254.023438 " fill-opacity="1" fill-rule="nonzero"/><path fill="#c8fbfd" d="M 193.6875 261.554688 C 193.75 261.804688 193.78125 262.050781 193.875 262.296875 C 193.996094 262.542969 194.027344 262.792969 194.058594 263.101562 C 194.027344 262.976562 194.027344 262.824219 193.996094 262.699219 C 194.089844 263.070312 194.152344 263.441406 194.183594 263.839844 C 194.183594 264.121094 194.214844 264.429688 194.214844 264.707031 C 194.246094 265.230469 194.246094 265.785156 194.214844 266.3125 C 194.183594 267.578125 194.027344 268.8125 193.84375 270.046875 C 193.535156 272.210938 192.949219 274.308594 192.238281 276.378906 C 191.867188 277.488281 191.558594 278.601562 191.371094 279.742188 C 191.3125 280.363281 191.28125 281.011719 191.25 281.660156 C 191.25 282.398438 191.21875 283.171875 191.25 283.914062 C 191.28125 284.683594 191.3125 285.425781 191.402344 286.199219 C 191.496094 286.90625 191.527344 287.648438 191.621094 288.359375 C 191.679688 288.761719 191.679688 289.191406 191.679688 289.625 C 191.679688 289.808594 191.679688 290.027344 191.679688 290.242188 C 191.652344 290.550781 191.558594 290.828125 191.464844 291.105469 C 191.339844 291.445312 191.15625 291.695312 190.785156 291.847656 C 190.476562 291.972656 190.042969 292.003906 189.765625 291.785156 C 189.550781 291.632812 189.304688 291.476562 189.117188 291.292969 C 188.902344 291.078125 188.6875 290.707031 188.5625 290.429688 C 188.285156 289.933594 188.007812 289.378906 187.851562 288.851562 C 187.730469 288.421875 187.574219 287.988281 187.480469 287.554688 C 187.359375 287.09375 187.296875 286.628906 187.234375 286.199219 C 186.925781 284.222656 186.773438 282.214844 186.957031 280.207031 C 187.050781 279.09375 187.234375 278.015625 187.511719 276.933594 C 187.761719 276.070312 188.070312 275.203125 188.347656 274.371094 C 188.933594 272.640625 189.335938 270.851562 189.707031 269.058594 C 189.921875 268.070312 190.042969 267.054688 190.261719 266.035156 C 190.355469 265.539062 190.445312 265.046875 190.570312 264.582031 C 190.632812 264.335938 190.691406 264.089844 190.753906 263.839844 C 190.816406 263.59375 190.847656 263.378906 190.941406 263.132812 C 190.972656 263.070312 191.003906 262.976562 191.03125 262.914062 C 191.125 262.699219 191.21875 262.453125 191.339844 262.265625 C 191.371094 262.203125 191.433594 262.144531 191.464844 262.082031 C 191.464844 262.050781 191.496094 262.019531 191.496094 261.988281 C 191.558594 261.867188 191.589844 261.742188 191.652344 261.617188 C 191.679688 261.554688 191.773438 261.339844 191.652344 261.617188 C 191.742188 261.402344 191.835938 261.21875 192.050781 261.0625 C 192.238281 260.90625 192.484375 260.816406 192.699219 260.816406 C 193.101562 260.785156 193.566406 261.09375 193.6875 261.554688 Z M 193.6875 261.554688 " fill-opacity="1" fill-rule="nonzero"/><path fill="#c8fbfd" d="M 163.210938 258.960938 C 163.179688 258.992188 163.148438 259.023438 163.117188 259.054688 C 163.058594 259.085938 163.027344 259.148438 162.964844 259.179688 C 163.027344 259.085938 163.117188 259.023438 163.210938 258.960938 Z M 163.210938 258.960938 " fill-opacity="1" fill-rule="nonzero"/><g clip-path="url(#632e2b7033)"><path fill="#c8fbfd" d="M 165.15625 258.808594 C 165.21875 259.054688 165.28125 259.300781 165.21875 259.582031 C 165.1875 259.640625 165.1875 259.734375 165.15625 259.796875 C 165.15625 259.828125 165.15625 259.859375 165.15625 259.890625 C 165.21875 260.445312 164.910156 261.03125 164.695312 261.527344 C 164.753906 261.402344 164.785156 261.277344 164.847656 261.15625 C 164.695312 261.554688 164.476562 261.925781 164.382812 262.359375 C 164.230469 262.945312 163.953125 263.441406 163.675781 263.964844 C 163.273438 264.769531 162.902344 265.601562 162.53125 266.433594 C 162.59375 266.25 162.6875 266.09375 162.75 265.910156 C 162.410156 266.714844 162.039062 267.484375 161.699219 268.289062 C 160.773438 270.542969 160.15625 272.917969 159.257812 275.175781 C 158.734375 276.5 158.148438 277.769531 157.40625 279.003906 C 156.789062 280.023438 156.109375 280.980469 155.460938 281.9375 C 154.78125 282.957031 154.132812 284.003906 153.640625 285.148438 C 153.359375 285.859375 153.144531 286.597656 152.898438 287.339844 C 152.558594 288.359375 152.1875 289.347656 151.753906 290.335938 C 151.414062 291.105469 151.015625 291.878906 150.582031 292.589844 C 150.058594 293.453125 149.46875 294.257812 148.820312 295.058594 C 148.511719 295.429688 148.234375 295.800781 147.925781 296.171875 C 147.773438 296.355469 147.648438 296.542969 147.496094 296.695312 C 147.371094 296.820312 147.09375 297.003906 146.90625 297.128906 C 146.597656 297.34375 146.257812 297.40625 145.886719 297.40625 C 145.519531 297.5625 145.085938 297.5 144.777344 297.253906 C 144.46875 297.003906 144.34375 296.695312 144.34375 296.324219 C 143.972656 295.398438 144.53125 294.472656 144.992188 293.609375 C 145.269531 293.113281 145.550781 292.621094 145.796875 292.09375 C 146.257812 291.199219 146.722656 290.304688 147.125 289.378906 C 147.523438 288.359375 147.832031 287.277344 148.113281 286.199219 C 148.265625 285.609375 148.390625 285.023438 148.574219 284.4375 C 148.820312 283.695312 149.101562 282.984375 149.441406 282.308594 C 150.367188 280.300781 151.695312 278.507812 152.898438 276.65625 C 153.578125 275.636719 154.132812 274.585938 154.628906 273.476562 C 154.996094 272.582031 155.304688 271.683594 155.617188 270.789062 C 156.046875 269.617188 156.511719 268.441406 157.035156 267.300781 C 157.5 266.34375 157.992188 265.417969 158.519531 264.519531 C 159.042969 263.59375 159.691406 262.761719 160.308594 261.894531 C 160.492188 261.648438 160.679688 261.402344 160.863281 261.15625 C 160.957031 261 161.082031 260.816406 161.203125 260.722656 C 161.265625 260.660156 161.359375 260.597656 161.421875 260.539062 C 161.542969 260.445312 161.605469 260.351562 161.730469 260.257812 C 161.945312 260.042969 162.128906 259.828125 162.347656 259.609375 C 162.59375 259.363281 162.839844 259.148438 163.117188 258.933594 C 163.273438 258.808594 163.425781 258.714844 163.644531 258.652344 C 163.738281 258.5625 163.828125 258.5 163.921875 258.4375 C 164.015625 258.375 164.136719 258.34375 164.261719 258.34375 C 164.414062 258.3125 164.414062 258.3125 164.261719 258.34375 C 164.324219 258.3125 164.414062 258.3125 164.476562 258.3125 C 164.753906 258.375 165.0625 258.46875 165.15625 258.808594 Z M 165.15625 258.808594 " fill-opacity="1" fill-rule="nonzero"/></g><path fill="#c8fbfd" d="M 140.515625 246.609375 C 140.761719 246.550781 141.007812 246.550781 141.257812 246.550781 C 141.503906 246.550781 141.75 246.640625 141.9375 246.796875 C 142.121094 246.921875 142.304688 247.136719 142.335938 247.382812 C 142.335938 247.476562 142.367188 247.570312 142.367188 247.628906 C 142.398438 247.816406 142.429688 247.96875 142.429688 248.125 C 142.429688 248.371094 142.398438 248.496094 142.335938 248.679688 C 142.277344 248.957031 142.246094 249.207031 142.089844 249.453125 C 141.996094 249.605469 141.90625 249.761719 141.78125 249.882812 C 141.628906 250.132812 141.441406 250.378906 141.289062 250.65625 C 141.132812 250.933594 140.980469 251.210938 140.792969 251.460938 C 140.050781 252.476562 139.3125 253.496094 138.601562 254.515625 C 137.765625 255.691406 136.808594 256.769531 135.914062 257.882812 C 135.113281 258.871094 134.339844 259.859375 133.539062 260.816406 C 133.320312 261.0625 133.105469 261.339844 132.890625 261.585938 C 132.640625 261.867188 132.363281 262.082031 132.117188 262.328125 C 131.871094 262.574219 131.589844 262.824219 131.34375 263.070312 C 131.222656 263.191406 131.097656 263.316406 130.972656 263.441406 C 130.542969 263.839844 129.984375 264.058594 129.398438 264.089844 C 129.027344 264.242188 128.6875 264.304688 128.289062 264.179688 C 128.070312 264.121094 127.917969 264.027344 127.730469 263.902344 C 127.269531 263.53125 127.050781 262.976562 127.113281 262.421875 C 127.113281 262.359375 127.144531 262.296875 127.144531 262.234375 C 127.082031 261.925781 127.113281 261.585938 127.207031 261.246094 C 127.300781 260.90625 127.453125 260.691406 127.640625 260.414062 C 127.824219 260.167969 127.980469 259.921875 128.164062 259.640625 C 128.320312 259.394531 128.503906 259.148438 128.660156 258.902344 C 128.90625 258.46875 129.214844 258.097656 129.523438 257.726562 C 130.292969 256.800781 131.066406 255.90625 131.871094 255.011719 C 132.640625 254.113281 133.414062 253.21875 134.1875 252.324219 C 134.957031 251.429688 135.792969 250.59375 136.625 249.761719 C 137.089844 249.296875 137.550781 248.804688 138.046875 248.371094 C 138.292969 248.15625 138.539062 247.9375 138.785156 247.691406 C 138.910156 247.597656 139.003906 247.476562 139.125 247.382812 C 139.1875 247.320312 139.25 247.289062 139.28125 247.230469 C 139.464844 247.074219 139.621094 246.949219 139.804688 246.859375 C 139.804688 246.859375 139.804688 246.859375 139.773438 246.859375 C 139.804688 246.859375 139.804688 246.828125 139.835938 246.828125 C 139.898438 246.796875 139.929688 246.765625 139.992188 246.765625 C 140.113281 246.765625 140.300781 246.640625 140.515625 246.609375 Z M 140.515625 246.609375 " fill-opacity="1" fill-rule="nonzero"/><g clip-path="url(#d62076b3f8)"><path fill="#c8fbfd" d="M 129.738281 228.761719 C 129.832031 228.980469 129.894531 229.195312 129.925781 229.410156 C 129.925781 229.691406 129.769531 230.152344 129.554688 230.339844 C 129.367188 230.492188 129.214844 230.707031 129.058594 230.863281 C 129.058594 230.863281 129.089844 230.832031 129.089844 230.832031 C 129.027344 230.894531 128.96875 230.957031 128.90625 231.019531 C 128.9375 231.019531 128.9375 230.988281 128.96875 230.988281 C 128.628906 231.265625 128.320312 231.542969 127.980469 231.789062 C 128.101562 231.695312 128.226562 231.605469 128.347656 231.511719 C 128.011719 231.820312 127.671875 232.128906 127.269531 232.375 C 126.992188 232.5625 126.714844 232.746094 126.433594 232.933594 C 125.878906 233.300781 125.355469 233.671875 124.796875 234.011719 C 123.65625 234.691406 122.484375 235.371094 121.339844 236.019531 C 119.023438 237.285156 116.675781 238.613281 114.332031 239.847656 C 113.1875 240.4375 112.078125 241.023438 110.933594 241.640625 C 109.824219 242.257812 108.679688 242.8125 107.566406 243.429688 C 106.519531 244.015625 105.5 244.695312 104.480469 245.3125 C 103.339844 246.023438 102.164062 246.613281 100.898438 247.105469 C 99.941406 247.476562 98.921875 247.722656 97.933594 247.96875 C 97.441406 248.09375 96.945312 248.1875 96.453125 248.308594 C 95.957031 248.402344 95.464844 248.558594 95 248.742188 C 94.816406 248.804688 94.660156 248.867188 94.476562 248.925781 C 94.105469 249.113281 93.703125 249.296875 93.332031 249.453125 C 93.457031 249.390625 93.609375 249.328125 93.734375 249.296875 C 93.273438 249.484375 92.871094 249.761719 92.40625 249.914062 C 92.191406 249.976562 91.851562 249.976562 91.636719 249.914062 C 91.328125 249.824219 91.078125 249.636719 90.863281 249.390625 C 90.492188 248.894531 90.492188 248.308594 90.738281 247.753906 C 90.863281 247.507812 91.078125 247.289062 91.296875 247.074219 C 91.417969 246.949219 91.542969 246.828125 91.664062 246.703125 C 92.035156 246.363281 92.4375 246.117188 92.839844 245.871094 C 93.609375 245.4375 94.414062 245.097656 95.21875 244.789062 C 95.0625 244.851562 94.90625 244.914062 94.785156 244.976562 C 95.554688 244.636719 96.328125 244.328125 97.132812 244.046875 C 97.6875 243.863281 98.242188 243.648438 98.796875 243.429688 C 100.40625 242.71875 101.792969 241.703125 103.152344 240.621094 C 104.695312 239.449219 106.300781 238.304688 108.03125 237.378906 C 111.644531 235.433594 115.320312 233.640625 118.960938 231.820312 C 120.011719 231.296875 121.0625 230.832031 122.113281 230.339844 C 122.792969 230.03125 123.5 229.722656 124.210938 229.441406 C 124.769531 229.226562 125.292969 229.011719 125.847656 228.824219 C 125.847656 228.824219 125.847656 228.824219 125.816406 228.824219 C 125.878906 228.792969 125.941406 228.792969 126.003906 228.761719 C 126.066406 228.734375 126.15625 228.734375 126.21875 228.703125 C 126.375 228.671875 126.527344 228.609375 126.683594 228.578125 C 127.082031 228.484375 127.546875 228.300781 127.980469 228.300781 C 127.855469 228.332031 127.699219 228.332031 127.578125 228.363281 C 127.824219 228.332031 128.101562 228.332031 128.320312 228.238281 C 128.8125 227.992188 129.492188 228.269531 129.738281 228.761719 Z M 129.738281 228.761719 " fill-opacity="1" fill-rule="nonzero"/></g><path fill="#c8fbfd" d="M 119.425781 211.347656 C 119.980469 211.347656 120.539062 211.441406 121.09375 211.472656 C 121.773438 211.535156 122.453125 211.6875 123.132812 211.78125 C 123.378906 211.8125 123.625 211.871094 123.839844 211.964844 C 124.242188 212.089844 124.582031 212.304688 124.796875 212.675781 C 124.984375 212.953125 125.046875 213.292969 124.953125 213.632812 C 124.921875 213.789062 124.859375 213.941406 124.769531 214.066406 C 124.613281 214.3125 124.367188 214.496094 124.121094 214.652344 C 123.808594 214.804688 123.5 214.960938 123.191406 215.054688 C 122.730469 215.207031 122.296875 215.363281 121.863281 215.515625 C 121.894531 215.515625 121.925781 215.484375 121.957031 215.484375 C 121.835938 215.515625 121.710938 215.578125 121.617188 215.609375 C 121.496094 215.640625 121.402344 215.671875 121.277344 215.671875 C 121.0625 215.734375 120.847656 215.765625 120.628906 215.824219 C 120.199219 215.917969 119.765625 215.980469 119.332031 216.042969 C 118.253906 216.195312 117.171875 216.257812 116.089844 216.320312 C 115.195312 216.382812 114.332031 216.441406 113.433594 216.441406 C 112.539062 216.441406 111.675781 216.441406 110.78125 216.441406 C 110.316406 216.441406 109.882812 216.414062 109.421875 216.414062 C 108.988281 216.414062 108.527344 216.351562 108.09375 216.320312 C 107.199219 216.226562 106.300781 216.132812 105.40625 216.011719 C 104.789062 215.949219 104.203125 215.886719 103.585938 215.765625 C 103.152344 215.671875 102.71875 215.609375 102.320312 215.515625 C 101.453125 215.332031 100.589844 215.207031 99.726562 214.992188 C 99.261719 214.867188 98.800781 214.746094 98.304688 214.621094 C 97.8125 214.496094 97.316406 214.40625 96.851562 214.28125 C 96.542969 214.21875 96.203125 214.128906 95.925781 213.972656 C 95.835938 213.910156 95.742188 213.847656 95.617188 213.789062 C 95.554688 213.757812 95.433594 213.664062 95.339844 213.632812 C 95.402344 213.664062 95.464844 213.695312 95.339844 213.632812 C 95.21875 213.570312 95.125 213.539062 95 213.480469 C 94.90625 213.449219 94.816406 213.386719 94.722656 213.355469 C 94.507812 213.261719 94.289062 213.140625 94.074219 213.015625 C 93.703125 212.832031 93.765625 212.183594 94.199219 212.089844 C 94.320312 212.058594 94.414062 212.058594 94.539062 212.027344 C 94.570312 212.027344 94.628906 211.996094 94.660156 211.996094 C 94.722656 211.996094 94.753906 211.964844 94.785156 211.964844 C 94.816406 211.964844 94.878906 211.964844 94.96875 211.933594 C 95.0625 211.933594 95.15625 211.902344 95.277344 211.902344 C 95.339844 211.902344 95.433594 211.871094 95.496094 211.871094 C 95.527344 211.871094 95.527344 211.871094 95.554688 211.871094 C 95.648438 211.871094 95.773438 211.84375 95.867188 211.8125 C 95.957031 211.78125 96.082031 211.78125 96.175781 211.75 C 96.515625 211.65625 96.824219 211.65625 97.164062 211.65625 C 97.65625 211.65625 98.152344 211.6875 98.675781 211.6875 C 99.136719 211.6875 99.632812 211.625 100.097656 211.625 C 101.082031 211.59375 102.042969 211.59375 103.027344 211.5625 C 104.015625 211.535156 105.003906 211.503906 105.960938 211.472656 C 106.949219 211.441406 107.9375 211.410156 108.894531 211.378906 C 109.390625 211.347656 109.914062 211.378906 110.410156 211.378906 C 110.902344 211.378906 111.367188 211.378906 111.859375 211.378906 C 113.835938 211.378906 115.78125 211.378906 117.757812 211.316406 C 118.3125 211.316406 118.871094 211.316406 119.425781 211.347656 Z M 119.425781 211.347656 " fill-opacity="1" fill-rule="nonzero"/><path fill="#c8fbfd" d="M 94.785156 211.996094 C 94.628906 212.027344 95 211.964844 94.785156 211.996094 Z M 94.785156 211.996094 " fill-opacity="1" fill-rule="nonzero"/></svg>