<?xml version="1.0" encoding="UTF-8"?>
<svg version="1.1" viewBox="0 0 2048 2048" width="1280" height="1280" xmlns="http://www.w3.org/2000/svg">
<path transform="translate(122,171)" d="m0 0h1344l8 3 6 7 2 6 1 655 17 10 52 30 16 10 6 7 2 5v8l-8 16-14 25-14 24-16 28-10 17-11 20-8 13-15 26-13 22-1 4 25 14 17 10 23 13 16 8 17 6 18 4 24 2h117v-38l2-9 6-11 9-9 11-6 4-1 20-1h111l21 1 11 4 8 6 8 9 4 9 1 4v467l-4 11-7 9-8 6-9 4-5 1-20 1h-121l-13-2-12-6-6-5-7-11-3-8-1-6-1-37-69 1-17 3-18 6-19 11-19 12-19 9-15 5-13 3-13 2h-38v262l-3 8-7 7-10 2h-1336l-8-2-5-5-4-6-1-3-1-44 1-1632 5-8 6-5zm26 40v1626h1293l1-1v-242l-1-1-207-20-21-4-11-4-3 1-13 23-14 24-8 14-11 8-15 10-51 35-23 16-24 16-11 8-10 7-5 3h-749l-6-3-3-1-2-4-3-8 1-10 4-6 5-4 7-2 720-1 4-43 8-99 1-16 9-15 15-26 12-21 10-17v-1l-19-2-16-5-15-8-12-11-8-9-8-14-5-13-2-10v-23l4-16 9-19 14-24 30-52 14-24 12-21 12-19 14-17 9-10 22-18 18-11 23-11 19-6 25-5 60-7 6-2 6-9 12-21 9-16 8-14 13-22 15-26 14-24 13-24 1-4-24-14-35-20h-2l-13 23-28 48-16 28-14 24-11 19-5 7-8 4h-11l-8-4-4-6-1-4v-9l8-16 75-130 14-24 6-5 5-2h9l16 8 49 28 17 10h3l15-25 14-25 14-24 6-8 5-3 2-1h10l10 4v-608zm1286 651-14 24-16 28-9 16-8 14v4l18 10 24 14 28 16 17 10 3 2 4-1 14-25 14-24 9-15 6-11 4-6v-3l-18-10-27-16-28-16-19-11zm-69 120-6 9-6 11-16 28-8 13 1 4 15 8 17 10 26 15 28 16 4 3 4-1 14-25 21-36-4-4-26-15-27-16-23-13-12-7zm-57 98-9 15-6 11-9 16-5 9-9 15-30 52-14 24-16 28-15 26-11 19-15 26-14 24-16 28-10 17-15 28-10 15-14 25-16 27-14 25-12 20v3l28 16 24 14 26 15 13 8h3l13-23 12-20-1-4-9-14-6-14-4-18v-17l3-16 5-13 7-13 8-10 10-10 14-9 14-6 12-3 9-1 23-1 6-9 45-78 14-24 16-28 30-52 14-24 16-28 9-16-3-3-18-10-27-16-28-16-17-10zm456 49-1 1v451h137v-451l-46-1zm-543 11-32 4-19 4-17 6-16 8-11 7-13 10-13 13-11 14-13 21-12 21-14 24-30 52-14 24-4 11-1 6v9l4 13 6 10 7 7 13 7 10 2h8l12-3 10-5 7-7 10-15 14-24 28-49 15-26 16-27 14-25 16-27 14-25 10-17 12-20v-3zm223 2-14 24-30 52-12 21-15 26-14 24-16 28-10 17-16 28-14 24-4 8 66 1 8 3 5 4 4 10-1 8-5 8-6 4-5 1-109 1h-25l-13 3-11 6-8 7-7 10-5 13-1 6v9l2 10 7 14 7 7 11 8 12 5 17 3 254 24h18l17-3 18-6 15-8 17-11 16-9 16-7 23-6 16-2 71-1v-302l-133-1-18-2-21-5-22-8-25-13-24-14-25-14-8-5zm-406 431-1 4-3 37-4 49v7l5-2 15-10 16-11 20-14 16-11 8-6-1-3-11-6-23-13-36-21z" fill="#F6CA4C"/>
<path transform="translate(266,775)" d="m0 0h1058l7 3 5 5 4 8v8l-4 8-7 6-8 2h-1054l-8-3-7-8-2-7 1-9 5-8 6-4z" fill="#F6CA4C"/>
<path transform="translate(264,317)" d="m0 0h1061l8 4 6 8 1 4v8l-5 9-6 5-4 1-32 1h-1020l-9-1-8-5-4-5-2-6v-7l4-9 6-5z" fill="#F6CA4C"/>
<path transform="translate(265,546)" d="m0 0h1059l8 3 6 7 2 6v7l-3 7-6 7-5 2-10 1h-1046l-9-2-7-6-3-6-1-10 5-10 7-5z" fill="#F6CA4C"/>
<path transform="translate(267 1e3)" d="m0 0h832l8 2 6 5 4 9v8l-4 8-7 6-8 2h-832l-7-3-5-5-3-5-1-10 3-8 8-7z" fill="#F6CA4C"/>
<path transform="translate(266,1462)" d="m0 0h675l8 3 6 7 2 4v11l-4 8-6 5-6 2h-674l-7-2-7-7-3-8 1-9 3-6 5-5z" fill="#F6CA4C"/>
<path transform="translate(265,1233)" d="m0 0h667l7 3 5 4 4 8v10l-3 6-4 5-6 3-8 1h-659l-9-3-5-5-4-8v-9l4-8 6-5z" fill="#F6CA4C"/>
</svg>
