<?xml version="1.0" encoding="UTF-8"?>
<svg version="1.1" viewBox="0 0 2048 2048" width="1280" height="1280" xmlns="http://www.w3.org/2000/svg">
<path transform="translate(800,108)" d="m0 0h171l16 3 11 5 10 6 10 9 9 10 8 15 4 14 1 12v96l6 2 9 7 7 8 6 12 8 23 9 15 11 12 10 8 17 9 20 7 10 6 9 8 6 10 4 10 2 15 1 1 286 1 12 3 10 6 9 8 7 11 4 11 1 20v855l12 2 26 4 25 6 24 8 25 11 18 10 16 10 16 12 13 11 14 12 14 15 11 14 9 12 10 15 10 18 11 23 9 25 7 26 4 23 2 21v38l-2 22-6 31-7 24-10 25-9 19-13 22-10 14-10 13-11 12-7 8-9 9-11 9-12 10-17 12-24 14-23 11-25 9-22 6-20 4-23 3-18 1h-1175l-13-2-9-4-9-6-9-10-5-10-3-12v-1422l4-13 6-10 10-10 16-8 6-1 286-1 1-1 2-15 4-10 7-11 9-8 14-7 18-6 14-7 14-11 3-4h2l2-4 7-11 6-13 7-20 6-10 6-7 12-8 1-100 3-16 7-16 9-12 10-10 14-9 14-5zm0 40-10 4-8 6-7 9-3 8-1 6v92l225 1 4-1v-91l-2-10-5-10-7-7-9-5-8-2zm-44 165-9 1-4 3-9 26-10 19-10 13-10 11-14 11-16 9-14 6-17 6-4 3-1 3v87l2 4 5 3h481l5-3 2-5v-87l-5-5-20-7-16-8-14-9-14-12-9-10-11-17-7-14-8-23-4-4-12-1zm-414 158-30 1-3 3-1 3v1415l3 5 5 2h1017l-1-3-11-6-16-12-13-10-11-10-8-7-11-12-11-14-10-13-11-17-9-16-10-21-9-24-6-21-5-25-3-27-1-22 3-35 4-24 7-26 8-23 8-18 12-22 11-17 12-16 12-14 7-8 12-12 11-9 15-12 21-14 22-12 17-8 18-7 24-7 26-5 24-3 2-1 1-828-1-41-3-5-1-1-21-1h-264l-1 1-1 41-2 10-4 10-7 9-8 7-13 6-11 2h-486l-13-4-10-6-7-6-7-11-4-10-1-4-1-44-1-1zm1119 916-30 5-20 5-21 7-18 8-17 9-14 9-24 18 6 7 38 38 3 6 1 7-3 9-5 5-5 3-10 1-8-3-44-44-4 2-13 18-12 19-6 10-10 22-10 30-5 24-2 13v9h60l9 2 7 6 3 8v7l-4 8-1 3-4 2-6 2-64 1v9l5 29 7 25 8 20 10 21 11 18 14 19 7 6 8-8 7-8 5-5 7-6 7-8 10-9 7-3h8l7 3 5 4 4 11-2 9-7 9-37 37-2 1 2 4 20 15 18 11 23 12 21 8 20 6 24 5 18 2 1-4 1-63 5-8 10-5h7l8 3 6 7 2 8v58l1 4 23-3 27-6 26-9 20-9 19-11 13-9 16-12 2-3-41-41-5-8-1-3v-9l3-6 5-5 6-3h9l10 5 42 42 5-4 14-19 10-16 9-17 10-25 7-23 5-25 2-17-1-1-65-1-6-3-5-6-2-4v-11l4-8 7-5 6-1h55l6-1v-9l-4-24-7-26-7-19-12-25-12-20-10-13-8-10h-2l-7 8-33 33-6 4-6 2-10-1-7-4-5-10v-9l4-8 43-43-5-5-20-15-15-9-21-11-23-9-25-7-28-5-9-1-1 55-1 12-6 9-7 3h-11l-7-4-5-6-1-3-1-38v-27z" fill="#EA3D76"/>
<path transform="translate(415,1110)" d="m0 0h205l8 2 6 5 4 8v208l-4 8-7 6-3 1-13 1h-189l-12-2-6-5-4-7-1-9v-197l2-8 7-8zm25 40-1 6v153h158l1-1v-158z" fill="#EA3D76"/>
<path transform="translate(415,1518)" d="m0 0h207l8 3 6 7 2 5v208l-3 7-8 7-3 1-16 1h-185l-13-2-5-4-5-8-1-9v-198l3-9 7-7zm75 39-50 1-1 6v153h158l1-1v-158l-57-1z" fill="#EA3D76"/>
<path transform="translate(414,702)" d="m0 0h209l7 3 7 8 1 3v209l-4 8-7 6-4 1h-209l-6-3-6-7-2-3-1-10v-197l3-9 5-5 4-3zm26 39-1 2v157l1 1h155l3-1v-158l-1-1z" fill="#EA3D76"/>
<path transform="translate(753,1276)" d="m0 0h603l7 3 7 8 2 7-1 8-6 9-7 4-11 1h-589l-9-2-6-5-4-8v-10l3-7 8-7z" fill="#EA3D76"/>
<path transform="translate(760,867)" d="m0 0h587l11 1 8 5 5 8 1 9-3 8-5 6-7 3h-605l-6-4-6-7-1-3v-11l3-6 5-5 5-3z" fill="#EA3D76"/>
<path transform="translate(1208,1142)" d="m0 0 32 1 6 3 6 7 2 5v9l-4 8-6 5-6 2-475 1-13-2-7-6-4-9v-7l3-8 8-7 2-1z" fill="#EB3E77"/>
<path transform="translate(752,735)" d="m0 0h488l7 4 5 6 2 5v9l-5 9-5 4-6 2-476 1-10-1-6-4-4-5-3-7v-7l3-8 8-7z" fill="#EB3E77"/>
<path transform="translate(753,1684)" d="m0 0h394l6 3 7 8 2 6-1 9-5 8-5 4-3 1-75 1h-310l-11-1-6-4-6-7-1-3v-10l3-7 8-7z" fill="#EA3D76"/>
<path transform="translate(753,1551)" d="m0 0h321l7 3 5 5 4 8v7l-5 10-6 5-3 1-12 1h-308l-7-2-6-5-4-8v-11l5-8 6-5z" fill="#EB3E77"/>
<path transform="translate(1479,1497)" d="m0 0h9l8 4 6 7 2 8v128l-1 8-5 7-7 4h-93l-6-3-6-7-2-5v-10l4-8 8-6 6-1h57l4-2v-58l1-52 6-9 6-4z" fill="#EA3D76"/>
<path transform="translate(306,515)" d="m0 0h1v1347h-1l-1-70-1-22v-1088l1-49z" fill="#DD3569"/>
<path transform="translate(1502,508)" d="m0 0h1v827h-1l-1-123-1-50v-278l1-15-1-41v-115z" fill="#DD3569"/>
<path transform="translate(1236,1303)" d="m0 0 1 2h6v-2h19l5 1h9l13-1h5v2l7-1 5 1h22l6 1 4-1-5 4v2l4-1v2l9 1 5 1v1h-239v-1l55-1 28-2 2-1 9-1h19l1-4-2-1h10z" fill="#DD3569"/>
<path transform="translate(755,1276)" d="m0 0h596l3 2-17 1-4 5-12 2h-20l-4-1v-2l-7-1 3-1v-2l-260-1h-257l-21-1z" fill="#DD3569"/>
<path transform="translate(320,1900)" d="m0 0h1009v1l-91 2h-27l-2 1v-2l-27 1-104-1-758-1z" fill="#DD3569"/>
<path transform="translate(1250,1933)" d="m0 0h4l6 1 3-1v2h6l1-2 5 3 4-2h12v2h9l7 1 10-1v2l5-1h102l2-1 12 1 13-1h6l4-1 5 1 9-1 5 1 5-1 10 1 6 1 3 1-2 1h-390v-1l63-1 4-1 9 1h10l11-1h18l8-2 4 2 4-1 4 1 3-1z" fill="#DD3569"/>
<path transform="translate(475,468)" d="m0 0h32l23 1h9l8-1 2 1h47v2l-101 1h-121l-10-1v-1l82-1h26z" fill="#E0376C"/>
<path transform="translate(1220,469)" d="m0 0h134l71 1v1l-52 1h-187v-2z" fill="#E1386D"/>
<path transform="translate(874,143)" d="m0 0h36l10 1 7-1 12 1h18v2l3 1h-142v-1l30-1h10l15-1z" fill="#DD3569"/>
<path transform="translate(1099,1719)" d="m0 0 6 1 6-1 5 1h13l4-1v2h9l2 2-69 1-78-1v-1l73-1 17-1h8z" fill="#DD3569"/>
<path transform="translate(1437,1659)" d="m0 0h28l17 1 8 2v1h-83v-1l20-1z" fill="#DD3569"/>
<path transform="translate(1701,1659)" d="m0 0h31v2l4-1v3h-57v-1l18-2z" fill="#DD3569"/>
<path transform="translate(1260,1659)" d="m0 0h14l8 2 5 1v1h-51l2-3h19z" fill="#DD3569"/>
<path transform="translate(1502,1838)" d="m0 0h2v57h-2l-1-31v-14z" fill="#E2386E"/>
<path transform="translate(1617,1762)" d="m0 0h7l3 8 1 2h-10v-2h-2l-2-4 1-3z" fill="#DD3569"/>
<path transform="translate(1554,1890)" d="m0 0h3v2l-10 3-8 1 3-3z" fill="#E0366C"/>
</svg>
