<?xml version="1.0" encoding="UTF-8"?>
<svg version="1.1" viewBox="0 0 2048 2048" width="1280" height="1280" xmlns="http://www.w3.org/2000/svg">
<path transform="translate(448,82)" d="m0 0h17l16 2 19 5 16 7 14 8 10 8 10 9 9 10 10 15v2l7-4 13-9 16-8 13-5 19-4 20-1 20 2 19 5 12 5 15 8 12 9 12 11 12 14 6 10v2l4-1 15-11 15-8 21-7 15-3 16-2h13l19 3 21 7 17 9 12 9 10 9 10 10 11 16 8 16 5 14 4 17 1 7v26l-5 25-8 20-8 14-10 13-11 12-186 186-2 1 1 3 32 32 8 7 24 24v2l4 2 633 633 6 5 7 8 5 4v2l4 2 5 6 4-2 8-8 5-6 6-5 29-29 5-6 8-7 4-5 6-5 6-7 6-5 5-6 8-7 7-7 5-6 7-6 6-7 6-5 6-7 6-5 6-7 6-5 6-7 6-5 6-7 4-4h2l2-4h2l2-4h2l2-4 4-4h2l2-4 11-9 11-8 17-9 18-6 15-3 10-1h18l20 3 17 5 19 9 14 10 14 12 11 13 9 14 7 14 6 18 3 16 1 19-2 19-4 17-5 13-8 16-12 17-3 4 6 2 12 9 12 11 7 7 12 17 9 19 5 16 3 16v29l-3 16-5 17-8 17-10 15-3 5 12 7 11 9 13 13 10 14 10 19 6 18 3 16 1 10v11l-2 20-5 19-7 16-8 14-12 16h-2l-2 4-248 248-11 9-10 7-19 10-19 6-15 3-12 1h-11l-18-2-19-5-18-8-13-8-14-11-9-9-10-13-6-10-9 6-13 8-12 6-18 6-15 3-13 1h-12l-21-3-16-5-16-7-14-9-11-9-12-12-12-16-2-5-7 4-16 10-16 7-17 5-17 3h-24l-18-3-21-7-19-10-12-9-12-11-11-13-11-18-7-17-5-19-2-17v-10l2-19 5-19 6-15 6-11 10-14 9-10 175-175 5-6 8-7 2-4-384-384-7-6-5-5v-2l-4-2-306-306-7-6v-2l-4-2-11-11-4 2-55 55-8 7-129 129-16 12-19 10-18 6-14 3-9 1h-24l-18-3-21-7-19-10-13-10-11-10-7-8-10-14-8-15-7-21-3-15-1-12v-10l3-21 4-15 8-18 9-15 5-7-14-10-13-11-8-8-11-15-9-17-5-14-4-15-2-17v-13l3-21 5-17 6-14 10-17 6-7-5-4-12-8-13-12-9-10-10-15-9-19-6-21-2-13v-23l3-19 5-16 8-18 10-15 12-14 250-250 14-11 13-8 15-7 16-5zm3 94-11 4-8 6-242 242-8 7-5 10-1 4v13l4 11 9 10 12 6 5 1h9l11-4 9-6 184-184 6-5 6-7 6-5 6-7 7-6 4-4v-2l4-2v-2l4-2v-2l4-2 16-16 6-8 3-10v-12l-4-11-9-10-6-4-11-3zm196 38-9 3-8 6-12 11-37 37-8 7-354 354-5 10-2 8v7l4 13 9 10 8 5 6 2h15l12-5 12-11 115-115 8-7 218-218 6-5 5-6 7-6 5-6 7-6 4-4v-2l4-2 21-21 6-8 4-12v-10l-4-11-4-6-9-8-7-3-5-1zm202 34-10 2-8 4-10 9-565 565-5 8-2 7v14l4 11 8 9 12 6 4 1h10l10-3 10-6 129-129 7-8 76-76 4-5 5-4 7-8 115-115 11-9 215-215 6-10 2-6v-15l-4-10-9-10-9-5zm-167 389-8 8v2l-3 1-7 8-20 20-7 6 2 4 297 297 7 8 420 420 4-1 45-45-6-7-676-676h-2l-2-4h-2l-1-3-9-9h-2l-2-4-5-4-5-5-4-5-5-5-3-1-2-4zm1080 526-9 2-10 6-574 574-5 12v16l4 10 8 9 12 6 5 1h9l10-3 9-6 5-4v-2l4-2v-2l4-2 20-20v-2l4-2v-2l4-2 4-4v-2l4-2 132-132v-2l4-2v-2l4-2v-2l4-2 8-8v-2l4-2 8-8v-2l4-2 8-8v-2l4-2v-2l4-2v-2l4-2 56-56v-2l4-2 8-8v-2l4-2v-2l4-2 56-56v-2l4-2v-2l4-2v-2l4-2v-2l4-2v-2l4-2v-2l4-2 8-8v-2l4-2v-2l4-2v-2l4-2v-2l4-2v-2l4-2v-2l4-2v-2l4-2 139-139 7-10 3-9v-13l-4-11-9-10-10-5-8-2zm33 197-11 4-11 9-5 6-7 6-5 6-7 6-6 7-6 5-6 7-6 5-6 7-6 5-6 7-6 5-6 7-6 5-6 7-6 5-6 7-6 5-6 7-6 5-6 7-6 5-6 7-6 5-6 7-6 5-6 7-6 5-6 7-6 5-6 7-6 5-6 7-6 5-6 7-6 5-6 7-6 5-6 7-6 5-6 7-6 5-6 7-6 5-6 7-6 5-6 7-6 5-6 7-6 5-6 7-6 5-6 7-6 5-6 7-6 5-6 7-6 5-6 7-6 5-6 7-6 5-6 7-6 5-6 7-6 5-6 7-5 5-4 8-2 7v10l3 10 6 9 10 7 8 3h14l11-4 11-9 403-403 6-8 3-9v-16l-4-9-6-8-9-6-9-3zm35 197-10 4-10 9-247 247-5 10-1 3v14l4 11 9 10 10 5 3 1h16l12-5 12-11 241-241 5-8 3-11v-8l-3-10-5-8-7-7-8-4-4-1z" fill="#B8100E"/>
</svg>
